<svg width="250" height="250" viewBox="0 0 250 250" fill="none" xmlns="http://www.w3.org/2000/svg">
<path fill-rule="evenodd" clip-rule="evenodd" d="M216.074 99.3502C216.274 99.7627 217.037 99.8877 217.537 99.9752C221.612 100.7 239.274 101.075 240.974 99.6127C242.462 98.3627 241.637 77.9377 240.187 77.1127C238.312 76.0002 217.862 75.7877 216.437 76.9252C215.399 77.7877 214.749 96.4627 216.074 99.3502ZM216.749 77.1877C217.887 76.2377 237.862 76.9502 239.662 77.8252C240.624 80.4002 241.249 96.5752 240.312 98.8752C238.787 99.9252 220.099 99.8877 216.837 98.8752C215.562 95.8127 216.037 77.7877 216.749 77.1877ZM166.362 75.0002C165.866 75.8482 165.197 76.5818 164.398 77.1527C163.598 77.7236 162.687 78.1189 161.724 78.3127C161.695 78.3051 161.664 78.3044 161.634 78.3106C161.604 78.3168 161.576 78.3298 161.552 78.3485C161.528 78.3672 161.509 78.3911 161.495 78.4185C161.482 78.4459 161.475 78.476 161.475 78.5065C161.475 78.5369 161.482 78.567 161.495 78.5944C161.509 78.6218 161.528 78.6457 161.552 78.6644C161.576 78.6831 161.604 78.6961 161.634 78.7023C161.664 78.7085 161.695 78.7078 161.724 78.7002C163.924 79.2752 166.787 77.2752 166.787 75.0752C166.797 75.0188 166.784 74.9608 166.751 74.914C166.718 74.8671 166.668 74.8351 166.612 74.8252C166.556 74.8153 166.498 74.8281 166.451 74.8609C166.404 74.8937 166.372 74.9438 166.362 75.0002ZM156.149 63.8127V65.0627C156.149 65.2285 156.215 65.3874 156.332 65.5046C156.45 65.6219 156.609 65.6877 156.774 65.6877C156.939 65.6845 157.096 65.6176 157.213 65.5011C157.329 65.3846 157.396 65.2275 157.399 65.0627V63.8127C157.399 63.6469 157.334 63.488 157.216 63.3708C157.099 63.2535 156.94 63.1877 156.774 63.1877C156.609 63.1877 156.45 63.2535 156.332 63.3708C156.215 63.488 156.149 63.6469 156.149 63.8127ZM168.612 65.0002C168.612 65.166 168.678 65.3249 168.795 65.4421C168.912 65.5594 169.071 65.6252 169.237 65.6252C169.403 65.6252 169.562 65.5594 169.679 65.4421C169.796 65.3249 169.862 65.166 169.862 65.0002V63.4502C169.862 63.2844 169.796 63.1255 169.679 63.0083C169.562 62.8911 169.403 62.8252 169.237 62.8252C169.071 62.8252 168.912 62.8911 168.795 63.0083C168.678 63.1255 168.612 63.2844 168.612 63.4502C168.562 63.9877 168.612 64.6127 168.612 65.0002Z" fill="white"/>
<path fill-rule="evenodd" clip-rule="evenodd" d="M241.087 155.425C241.005 155.286 240.889 155.17 240.75 155.088C239.675 154.563 233.825 154.825 232.612 154.875C232.825 122.088 215.55 101.638 190.475 95.7751C185.875 94.7001 185.862 94.6251 185.737 94.7001L184.887 92.3626C187.287 92.2876 189.25 90.4376 191.45 90.8126C193.112 91.0876 193.95 92.5626 195.587 93.1876C198.362 94.2376 203.3 92.6251 204.812 89.9876C205.587 88.6126 204.9 87.1876 205.387 86.2376C206.262 85.4751 208.75 84.2501 209.462 83.3626C210.925 81.5376 210.987 77.4501 210.325 75.2376C209.129 72.734 207.499 70.4615 205.512 68.5251C203.35 66.442 201.434 64.1186 199.8 61.6001C197.787 57.5876 197.712 52.0376 196.05 47.8501C194.217 44.0692 191.38 40.8649 187.85 38.5876C184.401 36.1517 180.243 34.9255 176.025 35.1001C172.087 35.3501 170.55 37.0251 168.712 37.6001C166.875 38.1751 166.487 37.6001 163.5 38.9126C162.313 39.6354 161.257 40.5523 160.375 41.6251C160 42.0251 160.025 42.0501 159.387 42.0751C158.7 42.0235 158.011 42.0235 157.325 42.0751C156.154 42.3349 155.035 42.7868 154.012 43.4126C147.05 47.5876 148.925 55.9876 146.3 62.1626C144.512 66.3626 139.537 70.4001 139.112 74.7876C138.961 76.805 139.395 78.823 140.362 80.6001C143.4 85.9376 147.762 81.7501 150.025 85.0126C150.737 86.0376 151.275 87.0376 152.6 87.2376C154.287 87.4626 156.587 86.1251 157.962 85.1376C158.251 85.4745 158.578 85.7765 158.937 86.0376C160.156 86.8591 161.464 87.5385 162.837 88.0626L159.662 92.5001C153.712 91.8251 144.575 93.7501 138.687 95.5626C138.475 94.0626 136.625 81.6751 135.225 81.0751C133.287 80.2251 112.95 82.5876 111.712 83.9251C110.8 84.9001 112.437 103.463 114.212 106.238C114.475 106.663 115.375 106.675 115.875 106.688C112.95 108.688 110.125 110.713 109.112 111.45C108.325 108.725 104.187 94.3126 102.662 91.9501C102.225 91.2626 101.825 91.2751 99.812 91.9501C98.6649 86.2267 97.2128 80.5686 95.462 75.0001C96.1185 73.9209 96.6431 72.7668 97.0245 71.5626C97.4904 69.6553 97.5585 67.6724 97.2245 65.7376C98.7495 66.2501 107.862 68.7501 109.337 68.0251C109.733 67.7425 110.027 67.3389 110.175 66.8751C111.787 63.3501 114.55 51.3126 114.762 47.5001C114.85 47.0119 114.766 46.5085 114.525 46.0751C113.062 44.5501 93.387 38.8876 91.7245 39.6376C90.712 40.1001 87.9745 49.0876 87.687 50.1501C85.2995 58.1626 86.512 56.4001 85.187 56.8626C83.662 57.4001 82.3495 60.6126 81.812 62.1001C81.2745 63.5876 80.712 65.5876 81.3495 66.7626C81.0907 67.2405 80.9865 67.7869 81.0514 68.3265C81.1164 68.8661 81.3472 69.3723 81.712 69.7751C81.3145 70.2182 81.0554 70.768 80.9665 71.3566C80.8777 71.9452 80.963 72.5469 81.212 73.0876C81.5745 74.2251 83.837 74.9751 84.962 75.3001C84.0738 77.6937 83.3349 80.1401 82.7495 82.6251C81.7524 86.4813 80.9555 90.3865 80.362 94.3251C79.9923 96.239 79.8704 98.1926 79.9995 100.138L77.9495 101.063C77.8707 101.099 77.8039 101.157 77.7574 101.23C77.7108 101.303 77.6864 101.388 77.687 101.475C77.687 101.475 78.0745 116.625 83.062 129.213C89.087 144.45 98.9995 149.55 114.087 143.85C114.223 145.046 114.517 146.219 114.962 147.338C115.187 147.738 115.95 147.813 116.462 147.863C120.9 148.008 125.342 147.87 129.762 147.45L133.512 171.2C132.5 174.125 121.012 207.45 121.175 210.55C121.175 210.875 121.3 211.125 121.837 211.375C125.15 212.913 156.537 217.013 157.725 213.588C158.025 212.75 158.75 207.413 158.887 206.4L176.55 204.45L193.387 205.563C193.568 207.248 193.869 208.919 194.287 210.563C194.437 210.938 194.612 211.138 195.05 211.1C196.712 210.938 205.575 209.338 208.025 208.875C217.425 207.1 217.212 206.95 216.937 206.025C216.275 203.838 210.125 186.775 207.725 178.813C211.235 179.187 214.776 179.187 218.287 178.813C218.325 178.948 218.396 179.072 218.495 179.172C218.593 179.273 218.715 179.347 218.85 179.388C221.137 180.225 241.575 179.063 243.25 177.388C244.762 176.05 242.225 157.325 241.087 155.425ZM91.7495 40.1751C91.887 39.9626 91.837 39.8751 92.937 40.0376C97.5245 40.6876 112.525 45.5251 113.825 46.6626C114.075 49.5251 110.362 65.2376 108.9 67.1376C107.837 67.5001 100.787 65.7001 99.6995 65.4126C91.4245 63.2501 91.7495 62.9126 89.862 62.4751C88.887 62.1376 88.787 62.1251 88.812 61.9876C88.8151 61.9567 88.8297 61.928 88.8528 61.9072C88.8759 61.8864 88.9059 61.875 88.937 61.8751C90.062 61.8751 93.0745 61.7876 93.812 60.9126C93.9748 60.7347 94.0963 60.523 94.1678 60.2927C94.2393 60.0623 94.259 59.8191 94.2256 59.5802C94.1921 59.3414 94.1064 59.1129 93.9744 58.911C93.8424 58.7092 93.6674 58.539 93.462 58.4126C91.8555 57.769 90.1764 57.324 88.462 57.0876C87.9495 56.9876 87.3245 56.8126 86.6995 56.7376C87.562 52.8376 90.412 42.2501 91.7495 40.1751ZM81.012 99.7251V97.7876C81.1245 95.4126 82.262 89.1751 82.5995 87.4626C83.1495 84.6876 83.2745 84.0626 84.8745 78.0376C84.8745 77.8751 85.837 75.1876 85.837 75.1876C85.8543 75.141 85.8614 75.0912 85.8579 75.0415C85.8544 74.9919 85.8403 74.9436 85.8166 74.8998C85.793 74.8561 85.7603 74.8178 85.7207 74.7877C85.6811 74.7576 85.6355 74.7362 85.587 74.7251C85.4495 74.7251 82.1995 73.9251 81.837 72.8876C81.4745 71.8501 81.3995 70.6001 82.312 70.0501C82.3456 70.0258 82.3729 69.9938 82.3917 69.9569C82.4106 69.92 82.4204 69.8791 82.4204 69.8376C82.4204 69.7962 82.4106 69.7553 82.3917 69.7183C82.3729 69.6814 82.3456 69.6495 82.312 69.6251C81.9125 69.2972 81.6438 68.837 81.5543 68.3279C81.4649 67.8189 81.5607 67.2946 81.8245 66.8501C82.112 66.2626 80.5745 66.5501 82.3995 62.3376C82.862 61.3001 84.4245 58.1126 85.487 57.7626C86.4278 57.6708 87.3774 57.7773 88.2745 58.0751C89.8413 58.3219 91.3814 58.7153 92.8745 59.2501C92.9695 59.3011 93.0514 59.3734 93.1138 59.4613C93.1763 59.5492 93.2176 59.6503 93.2345 59.7568C93.2515 59.8632 93.2436 59.9722 93.2115 60.0751C93.1794 60.178 93.124 60.2721 93.0495 60.3501C92.5004 60.6613 91.8987 60.869 91.2745 60.9626C87.337 61.7376 88.037 60.8751 87.5245 62.2126C86.0203 62.1244 84.5167 62.3943 83.137 63.0001C82.5995 63.1126 82.8245 63.4626 83.212 63.4001C84.8868 62.8513 86.6779 62.7606 88.3995 63.1376C89.3984 63.3202 90.3748 63.6093 91.312 64.0001C92.162 64.3454 92.9165 64.8898 93.512 65.5876C93.6184 65.8521 93.658 66.1386 93.6275 66.422C93.597 66.7054 93.4972 66.9769 93.337 67.2126C93.037 67.6751 91.587 67.3626 91.037 67.2126C90.287 66.9876 89.4995 66.8001 88.762 66.5626C87.7245 66.2376 87.837 66.1501 87.512 66.1751C86.3655 66.3375 85.2442 66.6441 84.1745 67.0876C84.1443 67.0911 84.1152 67.1014 84.0895 67.1178C84.0639 67.1342 84.0423 67.1563 84.0265 67.1823C84.0106 67.2083 84.0009 67.2376 83.9981 67.2679C83.9953 67.2982 83.9995 67.3288 84.0103 67.3573C84.0211 67.3857 84.0382 67.4114 84.0604 67.4322C84.0826 67.453 84.1093 67.4685 84.1384 67.4775C84.1675 67.4864 84.1983 67.4886 84.2284 67.4839C84.2585 67.4791 84.2871 67.4676 84.312 67.4501C85.2693 67.1802 86.2479 66.992 87.237 66.8876C87.7995 66.8876 87.437 66.8876 88.8495 67.4501C89.487 67.6876 90.0995 67.8751 90.7745 68.1001C91.2087 68.2489 91.6568 68.3536 92.112 68.4126C92.912 69.1626 93.487 70.9126 92.412 71.2251C91.9896 71.298 91.5552 71.2458 91.162 71.0751C88.2995 70.1376 90.237 69.4626 84.0245 70.7376C83.9737 70.7439 83.9272 70.7694 83.8946 70.809C83.8621 70.8485 83.8459 70.899 83.8495 70.9501C83.8495 71.2751 84.062 71.0751 87.4995 70.9501C87.9151 70.9083 88.3339 70.9083 88.7495 70.9501C89.8245 71.5001 91.4245 72.4376 92.662 72.0751C94.1745 71.5876 94.1245 69.9126 93.1495 68.6876C92.7995 68.2626 92.762 68.3876 93.062 68.3376C93.2814 68.3138 93.4935 68.2449 93.6849 68.1352C93.8764 68.0255 94.0431 67.8773 94.1745 67.7001C94.4705 67.2918 94.6361 66.8034 94.6495 66.2992C94.6629 65.7951 94.5234 65.2986 94.2495 64.8751L96.3495 65.5001C96.7653 67.4362 96.7311 69.4419 96.2495 71.3626C96.1155 71.8315 95.9398 72.2875 95.7245 72.7251C94.812 74.6501 94.4745 74.7126 94.587 75.0751C96.324 80.7231 97.7553 86.4606 98.8745 92.2626C94.162 93.9126 85.5245 97.7126 81.012 99.7251ZM179.925 186.588C185.275 186.813 196.775 187.225 202.05 187.063C201.687 188.638 201.462 189.638 201.4 189.863C198.887 189.863 182.65 187.05 179.925 186.588ZM204.075 185.95C200.725 186.738 157.237 185.038 153.512 183.45C153.9 180.65 157.55 164.913 158.287 161.7C161.568 162.704 164.981 163.21 168.412 163.2C169.662 163.85 171.725 164.975 172.962 165.563C172.825 166.625 172.487 169.138 173.237 169.888C173.987 170.638 191.25 176.975 206.387 178.75C205.776 181.199 205.004 183.604 204.075 185.95ZM157.887 155.863C157.311 155.688 156.779 155.394 156.325 155C156 154.65 156.112 153.588 156.325 153.088C156.441 152.845 156.647 152.656 156.9 152.563C157.205 152.43 157.53 152.35 157.862 152.325C157.961 152.323 158.057 152.29 158.138 152.232C158.218 152.173 158.279 152.092 158.311 151.998C158.344 151.904 158.347 151.803 158.32 151.707C158.294 151.611 158.238 151.526 158.162 151.463C157.431 150.847 156.921 150.008 156.712 149.075C156.712 148.388 156.975 147.675 158.075 147.05C159.325 147.15 163.075 150.25 164.812 148.463C166.55 146.675 164.5 142.488 166.437 142.138C168.375 141.788 169.35 147.613 169.687 148.25C170.812 150.438 173.837 152 175.562 153.8C174.52 157.526 173.686 161.307 173.062 165.125C170.562 163.788 168.712 162.625 168.525 162.625C165.912 162.538 158.9 161.813 157.075 159.95C156.75 159.699 156.528 159.339 156.45 158.937C156.371 158.534 156.442 158.117 156.65 157.763C156.782 157.528 156.962 157.322 157.177 157.159C157.392 156.996 157.638 156.878 157.9 156.813C158.007 156.786 158.102 156.725 158.169 156.638C158.237 156.55 158.273 156.443 158.271 156.333C158.27 156.222 158.231 156.116 158.161 156.031C158.091 155.945 157.995 155.886 157.887 155.863ZM171.812 114.238C169.49 114.015 167.157 113.924 164.825 113.963C164.525 113.963 164.275 114.113 164.187 114.4C163.975 115.2 160.437 141.2 160.262 142.475C159.512 129.975 158.737 116.813 158.162 107.163C162.512 114.1 162.887 114.788 163.575 114.3C165.892 112.394 168.085 110.34 170.137 108.15C170.512 109.538 171.112 111.8 171.812 114.238ZM183.25 109.85C182.4 108.6 181.562 107.35 181.25 106.888L185.287 96.7251L183.25 109.85ZM186.162 95.5001C190.89 96.475 195.5 97.9543 199.912 99.9126C199.725 100.5 197.312 107.875 194.425 116.675C193.1 116.513 185.512 115.588 183.175 115.338L186.162 95.5001ZM181.05 108.275L183.025 111.25L182.4 115.25L180.462 115C180.75 112.288 180.95 109.713 181.05 108.275ZM215.562 121.463C215.546 123.09 215.387 124.713 215.087 126.313C210.8 125.213 173.4 116.013 169.6 118.175C167.7 119.275 161.45 144.925 160.85 147.238L160.4 147.013C162.375 133.125 165 114.913 165 114.863C169.262 114.375 210.325 119.025 215.562 121.463ZM193.75 147.6C190.95 147.413 179.837 146.863 177.5 148.413C177.137 148.663 176.987 148.713 175.7 153.338C174.037 151.575 171.25 149.913 170.312 147.95C169.887 147.088 169.2 140.788 166.287 141.275C162.362 141.938 167.375 150.025 161.575 147.525C161.95 145.938 168.1 119.463 169.812 118.488C173.437 116.425 212.975 126.488 217.975 127.9C217.687 130.95 214.012 147.225 213.337 150.2C206.863 148.956 200.323 148.088 193.75 147.6ZM174.5 60.1626C175.2 60.6376 175.175 61.7751 175.05 62.6001C174.175 68.1876 168.575 71.5751 164.687 66.2251C163.8 64.9751 163.112 61.0001 163.712 60.1251C164.112 59.6126 167.337 59.5876 167.987 59.5876C169.187 59.6001 173.875 59.7876 174.45 60.1626H174.5ZM159.612 61.0626C159.612 63.4126 158.825 67.3126 156.737 68.4376C153.375 70.1876 149.962 67.4126 149.875 63.8001C149.746 62.4813 149.81 61.1509 150.062 59.8501L150.187 59.7876C149.987 59.4376 158.775 59.3251 159.562 60.1126C159.589 60.4287 159.589 60.7465 159.562 61.0626H159.612ZM163.962 88.2751C166.125 88.9001 169.612 88.6001 171.287 86.8876C171.322 86.8505 171.342 86.8013 171.342 86.7501C171.342 86.699 171.322 86.6498 171.287 86.6126C171 86.2626 171.287 86.9376 168.037 87.4251C164.787 87.9126 162.825 87.4251 159.537 85.2876C158.026 83.8994 156.894 82.1482 156.25 80.2001C154.904 76.9032 154.061 73.4226 153.75 69.8751C154.926 70.0678 156.133 69.8702 157.187 69.3126C158.21 68.7145 159.002 67.79 159.437 66.6876C159.015 68.0086 158.669 69.3524 158.4 70.7126C158.341 70.8868 158.332 71.0738 158.374 71.2527C158.416 71.4315 158.507 71.5952 158.637 71.7251C159.501 72.2534 160.519 72.4737 161.525 72.3501C161.554 72.3577 161.585 72.3584 161.615 72.3522C161.645 72.346 161.673 72.3331 161.697 72.3144C161.721 72.2957 161.74 72.2717 161.754 72.2443C161.767 72.2169 161.774 72.1869 161.774 72.1564C161.774 72.1259 161.767 72.0958 161.754 72.0684C161.74 72.041 161.721 72.0171 161.697 71.9984C161.673 71.9797 161.645 71.9667 161.615 71.9605C161.585 71.9543 161.554 71.9551 161.525 71.9626C160.783 71.8801 160.067 71.6415 159.425 71.2626C159.137 71.0626 159.262 71.1876 159.35 70.7751C159.437 70.3626 161.062 64.4001 161.15 64.0251C161.537 64.0251 163.012 63.8251 163.012 63.4626C163.012 63.1001 161.837 63.0001 161.4 63.0251C161.4 62.8626 161.475 62.7251 161.512 62.6001C161.532 62.5504 161.531 62.4948 161.51 62.4456C161.489 62.3963 161.449 62.3575 161.4 62.3376C161.35 62.3177 161.294 62.3184 161.245 62.3395C161.196 62.3606 161.157 62.4004 161.137 62.4501C160.7 63.3001 161 62.9876 160.412 63.1376C160.638 61.9818 160.638 60.7934 160.412 59.6376C159.7 58.5376 155.412 58.7876 154.012 58.8751C154.725 54.6876 157.5 52.6251 159.2 49.2751C159.676 48.4976 160.31 47.8289 161.062 47.3126C161.437 47.2126 162.175 48.1501 162.625 48.3751C163.075 48.6001 163.5 49.8376 163.875 50.2626C165.054 51.6052 166.412 52.7787 167.912 53.7501C169.162 54.6376 171.112 54.7751 171.962 55.9126C172.321 56.8799 172.495 57.9061 172.475 58.9376C170.862 58.8376 164.137 58.7376 163.337 59.8876C162.612 60.8126 162.925 65.0376 163.987 66.6626C166.662 70.7126 170.775 70.9626 173.987 67.3126C174.332 66.8818 174.626 66.4119 174.862 65.9126C177.262 69.6626 179.15 71.9001 179.237 76.3001C179.337 81.8751 177.762 91.1126 183.8 92.2751L184.837 95.1376C179.837 107.713 180.1 106.925 180.1 107.05C180.1 107.175 179.862 110.8 179.425 114.95C177.025 114.7 174.787 114.488 172.8 114.325C172.65 113.813 170.787 107.188 170.825 107.05C171.012 106.425 170.075 105.2 169.35 104.113C166.631 100.176 163.662 96.4186 160.462 92.8626L163.962 88.2751ZM159.562 93.2001C159.775 93.5251 168.775 103.425 169.875 107.063C167.852 109.304 165.667 111.393 163.337 113.313C162.5 112.213 160.237 108.588 158.087 105.2C157.7 98.6626 157.437 94.1126 157.375 93.1626C158.075 93.1126 158.862 93.1501 159.512 93.2001H159.562ZM114.925 105.7C113.5 103.2 111.525 86.9501 111.987 84.4501C111.987 84.2251 111.987 84.1501 113.037 83.8626C117.512 82.7001 133.212 81.3626 134.862 81.9251C136.112 84.3626 138.85 100.275 138.2 102.725C136.925 103.75 118.6 106.338 114.875 105.7H114.925ZM115.8 146.825C114.362 144 113.3 125.888 114.012 125.2C115.075 124.175 135.025 123.3 136.912 124.038C138.162 126.663 139.937 142.788 139.2 144.975C137.5 146.25 118.75 147.5 115.75 146.825H115.8ZM144.337 125.875C145.237 125.638 151.512 124.038 152.262 123.588C152.8 123.275 153.412 124.288 142.9 95.4376C144.15 94.2876 155.075 92.8126 156.8 93.3501C156.8 94.0376 158.437 123.213 159.725 146.625C159.112 146.325 158.225 145.863 157.662 146.175C155.312 147.425 155.162 149.5 156.9 151.525C156.575 151.605 156.274 151.759 156.02 151.976C155.766 152.193 155.566 152.467 155.437 152.775C155.237 153.244 155.152 153.755 155.188 154.263C155.225 154.772 155.384 155.265 155.65 155.7C155.941 155.979 156.274 156.211 156.637 156.388C156.264 156.638 155.969 156.989 155.787 157.4C155.623 157.754 155.526 158.136 155.5 158.525L144.337 125.875ZM175.45 203.663L159.125 205.475C159.2 204.875 161.037 190.388 161.625 185.475C165.025 185.775 169.125 186.038 173.512 186.275C174.237 195.288 175.512 201.513 175.4 203.663H175.45ZM176.312 203.563C176.487 200.713 174.137 186.425 174.125 186.3L175.375 186.363C179.625 187.15 190.575 189.088 191.762 189.288C192.162 193.313 193.162 202.688 193.4 204.613C174.762 203.413 176.775 203.513 176.25 203.563H176.312ZM242.637 176.813C241.387 177.813 223.025 179.488 219.237 178.663C217.775 175.825 216.737 157.725 217.45 157.038C218.525 156 238.475 155.15 240.337 155.875C241.512 158.488 243.325 174.675 242.587 176.813H242.637Z" fill="white"/>
<path fill-rule="evenodd" clip-rule="evenodd" d="M115.825 167.625C115.725 167.175 115.587 166.525 115.225 166.375C113.975 165.625 105.737 165.475 104.275 165.45C103.95 159.488 103.375 152.6 102.437 150.75C101.825 149.5 61.4248 149.375 60.0373 149.363C60.1373 142.638 60.1498 132.388 60.0373 125.613C61.7998 125.613 70.5998 125.613 71.8123 124.613C73.3623 123.363 72.3248 106.675 71.6248 103.363C71.5248 102.913 71.3748 102.263 71.0248 102.113C69.1998 101.025 48.7248 100.763 47.2748 101.925C46.5123 102.563 46.2248 110.375 46.1873 111.363C43.3248 111.363 25.6248 111 19.2998 111.15V100.938C20.9373 100.938 30.5498 101.2 31.7998 100.15C33.3123 98.9002 32.8123 78.4752 31.3748 77.6502C29.9373 76.8252 20.9623 76.5627 19.4123 76.5252C19.4123 74.7502 19.2748 70.2752 19.2623 70.1627C25.0498 69.9502 40.2998 70.4377 46.5873 70.4377C46.5873 72.4002 46.4748 79.3877 47.2998 81.1752C47.4998 81.6002 48.2623 81.7252 48.7623 81.8127C52.7373 82.5127 70.4623 82.9252 72.1998 81.4502C73.9373 79.9752 72.7248 61.2877 71.7123 59.2752C71.6452 59.1305 71.5418 59.0057 71.4123 58.9127C69.5248 57.8002 49.0748 57.6627 47.6623 58.7252C46.8498 59.4127 46.5748 68.3627 46.5498 69.4377C40.1623 69.4377 25.1373 68.9502 19.1873 69.1627C19.1873 66.7502 19.0623 64.3127 19.0623 61.9127C20.8373 61.9127 31.5623 61.7502 32.8998 60.5752C34.2373 59.4002 32.8998 40.4627 31.8248 38.4127C31.7579 38.2674 31.6491 38.1455 31.5123 38.0627C29.6123 37.0002 9.16226 37.3252 7.76226 38.5002C6.69976 39.4252 6.51226 58.1127 7.93726 61.0002C8.03543 61.1614 8.18519 61.2848 8.36226 61.3502C9.78726 61.9502 16.4373 61.9627 17.9998 61.9627C17.9998 67.5502 18.2498 72.0877 18.2998 76.5502C17.0498 76.5502 8.52476 76.3627 7.57476 77.1252C6.62476 77.8877 5.47476 96.5627 6.79976 99.6252C6.98726 100.038 7.74976 100.188 8.24975 100.275C11.5626 100.754 14.9029 101.017 18.2498 101.063V119.513C17.0623 119.513 8.92475 119.363 8.01225 120.1C7.09975 120.838 5.89976 139.538 7.22476 142.6C7.41226 143.025 8.17476 143.163 8.67476 143.263C12.7248 144.038 30.3748 144.713 32.1123 143.263C33.8498 141.813 32.9498 123.075 31.9998 121.088C31.9321 120.94 31.8291 120.811 31.6998 120.713C30.3373 119.888 20.8623 119.613 19.1998 119.575V112.35C25.6748 112.188 42.6498 112.55 46.0748 112.563C46.0748 114.675 45.8748 122.638 46.7748 124.575C46.8565 124.743 46.9997 124.873 47.1748 124.938C48.7873 125.675 57.1748 125.825 58.8873 125.838C59.0498 132.638 59.0373 142.913 58.8873 149.588C42.0873 149.5 24.6623 149.675 21.1498 150.388C20.7748 150.463 20.1623 150.588 20.1373 151.113C20.1373 151.113 19.4623 161.913 19.1498 165.625C18.0373 165.625 10.7248 165.625 9.87476 166.375C9.02476 167.125 8.08726 185.85 9.46226 188.875C9.64976 189.288 10.4123 189.425 10.9123 189.513C14.8998 190.213 32.6123 190.625 34.3498 189.15C36.0873 187.675 34.8623 168.95 33.8623 166.975C33.9124 166.856 33.9285 166.725 33.9086 166.597C33.8887 166.469 33.8337 166.349 33.7498 166.25C32.3123 165.388 22.0498 165.313 20.3498 165.3C20.6498 161.55 21.2998 151.113 21.2998 151.113C25.5748 149.863 96.6873 150.013 101.662 151.275C102.425 153.1 102.912 159.363 103.312 165.35C102.062 165.35 92.5623 165.275 91.5748 166.1C90.5873 166.925 89.8373 185.688 91.1623 188.6C91.25 188.768 91.397 188.897 91.5748 188.963C93.7873 189.963 114.25 190.413 116.05 188.875C116.359 188.5 116.539 188.036 116.562 187.55C117.15 183.75 116.637 171.375 115.825 167.625ZM47.9248 58.8752C49.0373 57.9502 68.9873 58.6127 70.8372 59.5127C71.3015 61.4856 71.5695 63.4996 71.6373 65.5252C63.6248 64.7127 52.7998 65.3377 47.2748 65.5252C47.2998 64.7752 47.4998 59.1752 47.9248 58.8377V58.8752ZM47.2623 66.2127C56.3623 66.5002 67.1623 66.0252 71.6748 66.0752C71.8123 68.2877 72.2998 78.6502 71.4873 80.5627C70.5623 81.2002 63.2748 81.3127 62.1623 81.3252C59.4748 81.3252 50.6123 81.3252 48.0123 80.5752C47.1123 78.3877 47.1998 68.6752 47.2623 66.1752V66.2127ZM8.08725 38.6002C9.19975 37.6252 29.1873 37.8127 31.0123 38.6002C31.4224 39.9935 31.6822 41.4266 31.7873 42.8752C23.7125 42.6371 15.6318 43.0552 7.62476 44.1252C7.63725 43.6752 7.72475 38.9252 8.08725 38.6002ZM8.74975 60.2877C7.73725 58.0252 7.59976 47.5002 7.62476 44.5502C8.67475 44.4252 31.3748 43.3002 31.8373 43.3002C32.1123 45.8002 33.0873 57.4627 32.2123 59.6502C30.5373 60.8627 11.7248 61.1002 8.74975 60.2877ZM7.88726 77.2002C9.02476 76.2877 28.9623 77.2752 30.7998 78.2002C31.2086 80.0655 31.4347 81.9661 31.4748 83.8752C31.5998 83.8752 13.7998 83.1752 7.16226 83.3877C7.19976 82.6502 7.49976 77.5002 7.88726 77.2002ZM31.4498 142.2C30.0748 143.1 11.6373 142.988 7.98725 141.825C7.08725 139.588 7.36225 129.325 7.48725 126.713C7.61225 126.713 24.6998 128.038 31.8498 127.2C31.9748 129.488 32.3123 140.25 31.4498 142.188V142.2ZM31.1498 121.125C31.5567 122.995 31.7869 124.9 31.8373 126.813C31.9623 126.813 14.1998 126.113 7.51226 126.313C7.56796 124.303 7.78112 122.301 8.14976 120.325C8.23726 120.075 8.14976 120.025 9.27476 119.9C13.7498 119.4 29.5498 120.313 31.1498 121.113V121.125ZM7.62476 98.8877C6.73726 96.6502 7.01226 86.4627 7.13726 83.7877C7.28726 83.7877 24.3248 85.1127 31.4998 84.2752C31.6248 86.5752 31.9748 97.2752 31.0998 99.2752C29.4123 100.375 10.6373 99.8502 7.62476 98.8877ZM34.0248 173.45C34.1748 175.775 34.6498 186.113 33.8373 188.075C32.5123 189 13.9998 189.188 10.3623 188.075C9.46226 185.9 9.54976 176.113 9.61226 173.5C17.6748 173.813 24.9998 173.45 34.0248 173.45ZM33.1873 167.025C33.6497 168.995 33.9217 171.004 33.9998 173.025C26.0498 172.225 14.8498 172.863 9.62475 173.1C9.62475 172.313 9.86226 166.725 10.2748 166.388C11.3998 165.463 31.3373 166.125 33.1873 167.025ZM47.4998 102.088C48.6498 101.125 68.5998 101.85 70.4123 102.725C70.8877 104.777 71.164 106.87 71.2373 108.975C65.8123 108.688 52.3123 107.825 46.8623 108.5C46.9248 107.788 47.1373 102.425 47.4998 102.088ZM47.6248 123.75C46.7123 121.563 46.8123 111.563 46.8873 108.95C48.6498 108.775 61.3998 109.575 67.3248 109.525C68.8373 109.525 70.1998 109.463 71.2998 109.425C71.4373 111.65 71.8998 121.813 71.0998 123.738C69.4623 124.9 50.6623 124.713 47.6248 123.75ZM91.7873 166.388C92.9123 165.463 112.85 166.125 114.712 167.025C115.17 168.999 115.438 171.013 115.512 173.038C107.637 172.238 96.2373 172.875 91.1497 173.038C91.1623 172.375 91.3748 166.763 91.7873 166.425V166.388ZM115.362 188.075C114 189 95.4873 189.188 91.8873 188.075C90.9748 185.913 91.0623 176.088 91.1373 173.488C99.5498 173.813 105.862 173.488 115.537 173.488C115.687 175.788 116.162 186.163 115.362 188.113V188.075Z" fill="white"/>
</svg>
