<svg width="250" height="250" viewBox="0 0 250 250" fill="none" xmlns="http://www.w3.org/2000/svg">
<path d="M88.4634 187.625C90.5472 186.887 92.682 186.302 94.8509 185.875L95.1134 186.837C95.1428 186.951 95.212 187.05 95.3084 187.116C95.4048 187.183 95.522 187.213 95.6384 187.2L104.226 186.2C106.588 180.812 110.926 172.65 110.988 172.525C110.926 170.487 110.988 168.775 110.988 166.825C106.076 168.65 96.9884 172.112 92.2384 174.325C92.131 174.394 92.048 174.495 92.0009 174.614C91.9539 174.733 91.9451 174.863 91.9759 174.987C91.9759 174.987 92.0634 175.3 92.1759 175.75C89.8509 175.75 82.8884 175.412 81.2134 177C80.953 177.363 80.8251 177.804 80.8509 178.25C80.7509 179.975 81.6134 193.375 82.9884 197.312C83.7009 199.375 85.2009 199.15 86.2259 197.175C87.4123 194.201 88.1739 191.074 88.4884 187.887C88.4884 187.725 88.4509 187.737 88.4634 187.625ZM87.0259 176.437C88.5509 176.312 89.0259 176.337 92.3009 176.237C92.8884 178.462 94.1009 183.037 94.7259 185.375C92.5205 185.717 90.3437 186.222 88.2134 186.887C87.5496 183.44 87.1526 179.946 87.0259 176.437Z" fill="white"/>
<path d="M203.513 67.0373C203.826 66.5998 203.426 66.0373 203.088 65.5998C204.044 64.6164 205.105 63.7404 206.251 62.9873C208.185 62.0234 209.953 60.7576 211.488 59.2373C212.126 58.5748 213.326 57.2123 212.876 56.4123C212.426 55.6123 211.626 55.5623 210.538 56.0248C211.009 55.5301 211.394 54.9596 211.676 54.3373C212.026 53.3623 211.201 52.5748 209.413 53.2998C210.063 52.2623 210.213 51.1748 209.113 50.6498C208.226 50.2248 206.926 51.2373 206.176 51.8998C204.703 53.1866 203.32 54.5732 202.038 56.0498C201.251 54.3998 200.001 52.4998 198.438 53.0998C196.876 53.6998 198.088 56.3873 198.888 57.8498L196.051 59.8123C195.622 59.5808 195.137 59.4726 194.651 59.4998C191.426 60.0498 176.613 71.3248 175.113 71.3248C173.963 71.3248 157.538 63.4498 143.338 61.1748C143.311 61.0896 143.26 61.0139 143.191 60.9564C143.123 60.8989 143.039 60.8619 142.951 60.8498C140.474 60.4271 137.963 60.2388 135.451 60.2873C135.374 60.2924 135.3 60.3141 135.233 60.3508C135.167 60.3875 135.108 60.4383 135.063 60.4998H134.013C133.763 59.4873 132.838 57.1498 132.513 56.2498C133.363 55.5123 134.538 55.1373 135.151 53.9498C136.276 51.7498 136.226 47.9248 135.913 45.4748C137.326 44.3998 137.363 42.6748 137.038 40.9123C136.913 40.1998 136.526 38.5873 135.926 38.1873C135.588 37.9623 134.876 38.1873 134.263 38.4123C133.651 36.9873 133.651 37.6373 133.901 37.0623C134.017 36.7973 134.084 36.5136 134.101 36.2248C134.763 36.4248 136.138 35.0998 135.663 33.3498C135.414 32.7233 135.109 32.1208 134.751 31.5498C134.926 31.1248 135.301 30.6123 134.126 29.0498C133.62 28.5039 132.963 28.121 132.238 27.9498H131.663C131.248 27.3476 130.639 26.9063 129.938 26.6998C128.879 26.4298 127.757 26.587 126.813 27.1373C126.563 27.3248 126.363 27.5748 126.113 27.7498C125.548 27.4066 124.899 27.2251 124.238 27.2251C123.577 27.2251 122.928 27.4066 122.363 27.7498C122.032 27.8796 121.731 28.075 121.478 28.3242C121.224 28.5733 121.024 28.8712 120.888 29.1998C120.276 28.9885 119.626 28.9071 118.98 28.9609C118.335 29.0147 117.707 29.2025 117.138 29.5123C114.979 30.6832 113.364 32.6529 112.638 34.9998C112.618 35.3536 112.618 35.7084 112.638 36.0623H112.501C110.626 35.7873 108.238 40.2373 110.151 43.6998C110.376 44.1123 110.663 44.4998 110.938 44.9498C111.738 46.1998 111.426 46.5748 113.213 48.0998C113.738 48.5498 113.826 48.5123 114.151 48.7873C114.476 49.0623 114.351 48.9248 114.538 49.6248C114.64 50.0371 114.823 50.4251 115.077 50.7663C115.33 51.1074 115.648 51.395 116.013 51.6123C116.146 52.8349 116.667 53.9828 117.501 54.8873C117.765 55.1826 118.072 55.4355 118.413 55.6373C118.505 55.6891 118.608 55.719 118.713 55.7248C119.088 58.0498 119.551 61.0748 119.751 62.3623L118.638 62.9623C117.183 63.5479 115.767 64.2286 114.401 64.9998C114.293 65.0739 114.218 65.1853 114.188 65.3123C112.863 66.0123 111.613 66.6748 110.901 67.0998C100.976 72.9873 72.7881 111.8 72.5006 113.575C72.4689 113.677 72.4689 113.786 72.5006 113.887C72.9046 114.532 73.3969 115.117 73.9631 115.625C73.7887 115.943 73.579 116.241 73.3381 116.512C70.8381 118.15 67.0881 120.587 65.0756 122.762C64.9345 122.888 64.8286 123.049 64.7684 123.228C64.7082 123.407 64.6958 123.599 64.7324 123.784C64.769 123.97 64.8533 124.143 64.9771 124.286C65.1009 124.429 65.2598 124.537 65.4381 124.6C65.8131 124.725 65.8756 124.687 68.3131 123.35C67.6432 123.937 67.0953 124.651 66.7006 125.45C66.5381 126.137 67.1631 126.537 67.9506 126.412C68.3937 126.296 68.8156 126.11 69.2006 125.862C68.9752 126.21 68.8552 126.616 68.8552 127.031C68.8552 127.446 68.9752 127.852 69.2006 128.2C70.4506 129.775 73.7256 124.812 75.4506 123.587C76.1506 124.475 77.1006 126.55 78.6131 126C79.9256 125.512 78.4881 122.625 78.6131 121.787C79.1217 121.299 79.6648 120.848 80.2381 120.437C81.2024 121.152 82.3049 121.659 83.4756 121.925C85.5381 121.925 107.063 100.2 108.701 98.4623C108.113 103.987 105.151 127.7 105.776 132.312C106.063 134.4 111.076 134.7 113.188 134.812C112.551 149.812 112.126 172.537 112.013 172.775C108.701 179.912 107.801 181.862 106.688 184.025C104.663 187.9 96.1381 202.2 95.1756 205.45C95.0381 205.962 95.0256 206.162 95.5631 207.112C93.9523 208.806 92.4573 210.606 91.0881 212.5C90.4006 213.75 93.3506 225.4 95.4381 229.525C95.9131 230.45 96.6881 231.875 97.7256 231.837C100.851 231.725 100.838 220.5 100.751 217.362C100.75 217.266 100.715 217.172 100.651 217.1C101.217 216.254 101.835 215.444 102.501 214.675C102.898 214.948 103.316 215.191 103.751 215.4C104.176 215.587 104.651 215.262 105.001 214.975C109.163 211.7 131.613 183.725 136.426 170.525C138.613 164.5 141.526 156.175 142.351 150.275C142.855 146.544 142.901 142.766 142.488 139.025C142.488 138.972 142.509 138.921 142.547 138.883C142.584 138.846 142.635 138.825 142.688 138.825C142.741 138.825 142.792 138.846 142.83 138.883C142.867 138.921 142.888 138.972 142.888 139.025C143.514 142.788 143.636 146.617 143.251 150.412C142.326 158.6 135.863 175.662 132.413 181.937C135.388 181.387 141.438 180.187 144.363 179.312C154.113 176.35 163.113 167.512 163.901 157.587C164.155 152.912 164.155 148.225 163.901 143.55C163.816 137.095 162.977 130.672 161.401 124.412C164.051 122.975 166.476 121.287 167.263 119.737C168.951 116.425 164.488 97.3623 163.513 92.0123C168.851 92.5998 177.938 93.6623 182.176 90.3498C187.026 86.4498 197.501 75.4748 203.513 67.0373ZM100.076 216.675C97.8256 215.312 94.6756 212.075 94.2006 209.537C94.7131 208.887 95.2506 208.287 95.7506 207.612C97.4446 210.197 99.5568 212.483 102.001 214.375C101.314 215.103 100.671 215.871 100.076 216.675ZM199.451 58.1998C199.515 58.1585 199.562 58.0941 199.58 58.0197C199.599 57.9453 199.588 57.8666 199.551 57.7998C199.113 56.9873 197.801 54.1248 198.713 53.7998C199.238 53.5998 199.701 53.9248 200.088 54.3623C200.68 55.1129 201.14 55.9582 201.451 56.8623C201.474 56.9358 201.516 57.0016 201.574 57.0527C201.632 57.1038 201.702 57.1383 201.778 57.1524C201.854 57.1665 201.932 57.1598 202.004 57.1329C202.076 57.106 202.14 57.06 202.188 56.9998C203.438 55.6123 206.363 52.4498 208.013 51.5998C209.263 50.9498 209.563 52.1498 206.501 54.9498C205.797 55.4861 205.121 56.0577 204.476 56.6623C204.44 56.7113 204.421 56.7704 204.421 56.831C204.421 56.8916 204.44 56.9507 204.476 56.9998C204.476 57.3248 204.738 57.6873 205.188 57.3498C206.275 56.396 207.423 55.5149 208.626 54.7123C209.239 54.2762 209.953 54.0011 210.701 53.9123C210.326 55.0623 206.838 58.1873 206.538 58.5373C206.443 58.6226 206.385 58.7418 206.377 58.8693C206.369 58.9968 206.411 59.1224 206.495 59.219C206.578 59.3157 206.696 59.3757 206.824 59.3861C206.951 59.3965 207.077 59.3566 207.176 59.2748C208.563 58.3748 210.988 56.2748 211.826 56.5873C212.663 56.8998 210.176 59.2248 209.551 59.7748C205.963 62.8873 206.888 60.8873 202.738 65.1123C200.932 63.1334 198.857 61.4168 196.576 60.0123L199.451 58.1998ZM145.138 117.987C144.926 116.262 144.663 114.4 144.338 112.462L144.876 111.75C147.376 108.537 148.126 103.425 147.888 99.4123C149.226 105.275 150.288 111.037 151.101 116.762L145.138 117.987ZM126.551 75.1873C123.263 72.6873 117.976 68.3748 114.901 65.4248L119.901 62.9248C124.492 67.2133 128.422 72.1587 131.563 77.5998C136.366 86.4226 139.929 95.8658 142.151 105.662L124.326 80.4498L126.651 75.6248C126.681 75.5505 126.688 75.4685 126.67 75.3901C126.652 75.3117 126.611 75.2408 126.551 75.1873ZM135.001 61.0123C135.076 61.1498 135.938 62.9873 137.251 66.1998C137.251 66.3373 137.013 69.4623 136.901 70.5623C135.305 69.9299 133.801 69.0893 132.426 68.0623C132.701 66.9748 133.938 62.0373 134.026 60.9248L135.001 61.0123ZM130.563 74.4373C130.651 74.2123 130.738 73.9123 130.838 73.5623L131.676 73.9998C132.151 74.3123 131.963 73.3623 132.388 76.1123C132.388 76.5748 132.513 77.0873 132.538 77.6498C131.963 76.6123 131.251 75.4998 130.576 74.4373H130.563ZM129.863 73.3873C127.502 70.0377 124.813 66.9308 121.838 64.1123L131.251 68.1998C130.888 69.0623 130.363 71.6998 129.876 73.3873H129.863ZM139.476 80.7123C138.226 77.2998 137.263 73.4873 136.788 72.4873C136.816 72.1754 136.816 71.8616 136.788 71.5498C136.969 71.6171 137.158 71.6591 137.351 71.6748C137.471 71.6761 137.588 71.6339 137.68 71.5558C137.772 71.4777 137.833 71.369 137.851 71.2498C137.951 70.8373 138.113 68.7498 138.138 68.2873C141.774 77.4679 144.81 86.8753 147.226 96.4498C140.163 81.4248 141.251 85.7748 139.488 80.7123H139.476ZM149.813 104.575C146.963 90.9123 141.951 73.8748 136.251 61.2498C138.344 61.2509 140.434 61.4181 142.501 61.7498C143.563 71.2498 142.676 70.9248 143.388 71.2998C144.101 71.6748 148.388 73.3998 149.026 73.6623C148.963 74.6248 149.863 102.15 149.826 104.575H149.813ZM135.426 38.9873C136.077 40.4093 136.307 41.9885 136.088 43.5373C135.986 43.9315 135.777 44.2897 135.484 44.5721C135.191 44.8545 134.825 45.0499 134.427 45.1367C134.029 45.2235 133.615 45.1983 133.231 45.0638C132.847 44.9292 132.507 44.6907 132.251 44.3748C131.654 43.1184 131.205 41.797 130.913 40.4373C131.251 39.9998 134.851 39.1248 135.426 38.9873ZM118.226 51.4873C117.769 51.2794 117.302 51.0958 116.826 50.9373C116.506 50.8059 116.221 50.6032 115.992 50.3446C115.763 50.086 115.596 49.7783 115.504 49.4453C115.413 49.1122 115.398 48.7626 115.463 48.4232C115.527 48.0838 115.668 47.7636 115.876 47.4873C116.663 46.8248 117.376 46.8623 118.026 47.8498C118.438 48.6123 118.426 48.6748 118.613 48.7498C118.667 48.7735 118.725 48.7854 118.784 48.7848C118.843 48.7841 118.901 48.771 118.954 48.7461C119.007 48.7212 119.055 48.6853 119.093 48.6407C119.131 48.596 119.159 48.5437 119.176 48.4873C119.361 47.7049 119.391 46.8937 119.263 46.0998C119.113 45.2373 119.088 41.4123 119.113 41.2873C119.478 41.4797 119.888 41.5704 120.301 41.5498C122.563 41.4623 123.013 40.2998 123.913 39.3498C124.951 39.4498 125.163 39.9498 126.338 39.3498C126.888 39.0368 127.393 38.6499 127.838 38.1998C128.197 38.3469 128.544 38.5224 128.876 38.7248C129.625 39.085 130.47 39.1957 131.286 39.0404C132.103 38.8852 132.848 38.4723 133.413 37.8623C133.551 38.1248 133.676 38.3873 133.788 38.6623C132.639 39.0187 131.558 39.5636 130.588 40.2748C130.376 40.5373 130.688 41.9623 130.763 42.2998C129.716 42.4315 128.703 42.758 127.776 43.2623C127.588 42.6123 127.176 41.3998 126.526 41.0623C126.33 41.0024 126.121 41.0024 125.926 41.0623C124.801 41.2373 120.763 42.4498 120.276 43.1123C119.851 43.5748 121.063 47.1498 121.438 47.7373C122.876 49.9623 127.088 49.3123 127.876 46.7123C128.071 45.8397 128.071 44.9348 127.876 44.0623C128.238 44.0623 129.326 43.6748 129.451 43.6373C130.313 45.5748 130.563 45.6873 131.563 47.7748C131.426 47.8873 131.201 48.0748 131.013 48.1998C130.126 48.7873 129.938 48.6873 129.988 48.9373C130.003 48.9869 130.035 49.0295 130.079 49.0571C130.122 49.0847 130.175 49.0954 130.226 49.0873C130.75 49.0123 131.263 48.8694 131.751 48.6623C132.043 48.5534 132.283 48.3394 132.426 48.0623C132.776 47.2748 130.838 44.3123 130.076 43.4248C130.226 43.4248 130.576 43.1748 130.838 43.0373C131.188 44.4373 131.426 45.5373 132.776 46.0873C133.166 46.2346 133.582 46.3016 133.998 46.2845C134.415 46.2673 134.824 46.1662 135.201 45.9873C135.401 48.1873 135.363 51.7623 134.313 53.7123C133.776 54.7248 132.451 55.1123 131.601 55.9498C131.351 56.1873 131.513 56.5248 131.601 56.8873C132.988 60.7498 133.013 60.7373 132.938 61.2373C132.57 63.3125 132.056 65.3593 131.401 67.3623C131.088 67.2248 127.576 65.3623 120.701 62.6873C120.488 61.2748 119.351 53.7373 118.988 52.3498C119.013 51.8623 118.951 51.7498 118.226 51.4248V51.4873ZM126.976 46.3873C126.576 47.7498 124.688 48.3373 123.338 47.9623C121.988 47.5873 121.901 46.8998 121.263 45.2748C120.964 44.654 120.758 43.9928 120.651 43.3123C121.063 42.8623 125.576 41.9373 126.138 41.8498C126.927 43.1994 127.223 44.7811 126.976 46.3248V46.3873ZM78.0631 121.437C77.5881 121.9 78.2256 123.412 78.3256 124.725C78.3256 124.837 78.3256 125.325 78.2506 125.362C77.5631 125.587 76.9256 124.55 76.5381 123.925C76.1506 123.3 75.7631 122.45 75.1506 122.675C73.9006 123.262 71.0006 127.112 69.8631 127.512C69.2881 126.412 72.5756 123.275 72.6881 123.1C72.7364 123.019 72.7616 122.927 72.7612 122.834C72.7607 122.74 72.7346 122.648 72.6856 122.568C72.6367 122.488 72.5667 122.423 72.4834 122.38C72.4001 122.338 72.3066 122.318 72.2131 122.325C71.9881 122.325 71.8381 122.525 71.4881 122.837C70.4235 123.876 69.205 124.745 67.8756 125.412C69.081 124.029 70.3709 122.723 71.7381 121.5C71.8056 121.43 71.8531 121.344 71.8756 121.25C71.8756 121.25 71.6131 120.587 71.1006 120.85C70.3756 121.25 66.8506 123.287 65.7381 123.812C65.5881 123.712 65.6756 123.562 65.7381 123.412C67.5006 121.25 71.3756 118.625 73.7506 116.962C74.0294 116.675 74.2614 116.346 74.4381 115.987C76.083 117.518 77.8377 118.926 79.6881 120.2C79.118 120.574 78.575 120.987 78.0631 121.437ZM107.151 132.8C106.876 132.625 106.676 132.462 106.638 132.237C105.951 127.137 109.776 98.2373 109.713 97.0998C109.713 97.033 109.7 96.967 109.674 96.9055C109.648 96.844 109.61 96.7883 109.562 96.7417C109.515 96.6951 109.458 96.6586 109.396 96.6342C109.334 96.6098 109.267 96.5981 109.201 96.5998C108.563 96.5998 109.688 96.5998 93.7631 111.85C92.7131 112.837 84.6881 120.512 83.3506 121.025C81.5131 120.887 74.6006 115.375 73.4756 113.637C75.6506 109.237 102.026 73.0373 111.151 67.4998C111.851 67.0748 113.051 66.4123 114.363 65.7123C114.817 66.1403 115.306 66.5292 115.826 66.8748C118.726 69.6248 122.763 73.0498 125.826 75.6248L123.438 80.3623C123.402 80.425 123.383 80.4961 123.383 80.5685C123.383 80.6409 123.402 80.7121 123.438 80.7748C142.826 108.587 142.538 108.275 142.663 108.275C143.906 114.702 144.679 121.211 144.976 127.75C144.976 129.512 144.976 129.362 145.051 129.237C145.126 129.112 145.051 129.325 145.051 129.325C142.026 132.625 112.088 135.7 107.151 132.8ZM176.251 91.3873C170.588 92.1748 164.188 90.9998 162.951 90.9498C162.263 87.6175 160.892 84.4637 158.926 81.6873C158.896 81.6468 158.851 81.6192 158.802 81.6099C158.752 81.6006 158.701 81.6104 158.658 81.6372C158.616 81.6641 158.585 81.706 158.572 81.7547C158.559 81.8034 158.565 81.8552 158.588 81.8998C159.313 83.3748 161.738 89.7373 162.338 91.2873C162.151 91.8873 167.988 116.025 166.338 119.275C164.863 122.212 156.276 125.912 153.176 126.975C152.563 120.016 151.561 113.097 150.176 106.25C150.601 102.65 150.051 81.2498 149.888 73.3373C149.883 73.2453 149.853 73.1566 149.8 73.0814C149.746 73.0062 149.673 72.9476 149.588 72.9123L143.976 70.5498C143.95 67.5792 143.762 64.6123 143.413 61.6623C157.426 64.0873 173.751 72.0998 175.113 72.1123C177.088 72.1123 191.763 60.8623 194.801 60.4123C196.151 60.1998 201.951 65.2623 202.626 66.6623C196.701 74.9373 186.288 85.8123 181.463 89.5748C179.909 90.6141 178.114 91.238 176.251 91.3873Z" fill="white"/>
<path d="M125.688 43.8873C125.673 43.8052 125.641 43.727 125.595 43.6571C125.549 43.5873 125.49 43.5271 125.421 43.4801C125.352 43.4331 125.274 43.4002 125.193 43.3832C125.111 43.3662 125.026 43.3654 124.944 43.381C124.862 43.3966 124.784 43.4282 124.714 43.4741C124.644 43.5199 124.584 43.579 124.537 43.6481C124.49 43.7171 124.457 43.7948 124.44 43.8766C124.423 43.9584 124.423 44.0427 124.438 44.1248C124.688 45.3748 124.738 45.6623 125.288 45.6623C125.392 45.6626 125.495 45.6371 125.586 45.5879C125.678 45.5387 125.756 45.4674 125.813 45.3805C125.87 45.2936 125.904 45.1939 125.913 45.0903C125.922 44.9867 125.905 44.8826 125.863 44.7873C125.826 44.5873 125.713 43.9998 125.688 43.8873ZM129.513 52.1623C130.326 52.3998 131.101 52.0123 131.076 51.8123C131.051 51.6123 131.076 51.7123 129.976 51.2998C129.238 51.0248 128.426 50.0498 128.138 50.1998C127.851 50.3498 128.288 51.1498 128.388 51.2998C128.656 51.7055 129.052 52.0094 129.513 52.1623ZM152.376 40.2873C150.738 47.1498 149.538 52.9748 149.338 54.1373C149.205 54.6431 149.18 55.171 149.263 55.6873C149.926 57.0998 158.488 59.8873 159.576 59.3373C160.663 58.7873 163.488 52.4248 166.776 45.8623C168.79 45.9266 170.805 45.78 172.788 45.4248C174.877 45.0417 176.909 44.3992 178.838 43.5123C183.063 41.5623 187.688 33.2123 188.313 29.0123C188.782 24.4523 187.816 19.8598 185.551 15.8748C175.063 -2.31271 144.301 7.47479 146.801 27.6748C147.515 32.2969 149.438 36.6481 152.376 40.2873ZM160.001 55.1748C160.001 55.3748 159.776 55.3498 158.751 55.1748C156.654 54.9113 154.624 54.2629 152.763 53.2623C151.888 52.7873 151.651 52.6873 151.738 52.4748C151.826 52.2623 152.013 52.3373 153.363 52.7123C153.488 52.7123 157.363 53.9623 158.476 54.3498C159.913 54.9998 160.001 54.9998 160.001 55.1748ZM159.776 34.8373C161.11 34.9065 162.441 34.631 163.638 34.0373C164.751 34.5765 165.955 34.9029 167.188 34.9998C165.088 38.9123 160.826 46.8873 159.451 51.1373L154.151 49.6748C155.401 46.5998 158.163 39.3998 159.751 34.8373H159.776ZM159.338 33.7998C158.405 33.6588 157.544 33.2157 156.887 32.5383C156.23 31.8609 155.813 30.9867 155.701 30.0498C155.351 27.5498 156.951 24.7498 159.363 25.4123C160.876 25.8248 161.063 27.0248 160.801 28.5373C160.576 29.6373 159.763 32.3998 159.313 33.7498L159.338 33.7998ZM162.738 30.7998C162.872 29.9818 163.178 29.2019 163.638 28.5123C163.857 28.1364 164.177 27.8293 164.561 27.626C164.946 27.4227 165.379 27.3314 165.813 27.3623C166.738 27.6373 167.138 29.3873 166.376 30.4873C165.643 31.4598 164.731 32.2829 163.688 32.9123C163.329 32.7018 163.044 32.3865 162.869 32.0089C162.695 31.6313 162.641 31.2093 162.713 30.7998H162.738ZM151.251 14.9123C156.851 8.17479 167.388 5.49979 175.001 8.27479C179.136 9.69434 182.614 12.5686 184.788 16.3623C186.943 20.1542 187.865 24.5229 187.426 28.8623C186.851 32.7498 182.426 40.8248 178.538 42.6123C174.984 44.2336 171.106 45.0203 167.201 44.9123C166.776 44.9123 166.326 44.9123 166.163 45.2123C165.426 46.7123 164.076 49.6123 162.751 52.3373C161.836 51.8955 160.887 51.5276 159.913 51.2373C161.363 47.0873 165.938 38.9373 168.113 34.9873C169.998 35.1487 171.892 34.8215 173.613 34.0373C174.078 33.7925 174.464 33.4202 174.725 32.964C174.985 32.5078 175.111 31.9866 175.086 31.4617C175.061 30.9368 174.887 30.4299 174.584 30.0004C174.281 29.571 173.862 29.2369 173.376 29.0373C171.438 28.0873 169.701 30.3623 168.688 32.2748C168.413 32.7748 168.101 33.3623 167.751 34.0248C166.74 33.9583 165.743 33.7522 164.788 33.4123C165.739 32.7442 166.582 31.9349 167.288 31.0123C167.684 30.4146 167.884 29.7089 167.862 28.9924C167.84 28.2759 167.595 27.5841 167.163 27.0123C166.824 26.6179 166.352 26.361 165.836 26.2896C165.321 26.2183 164.797 26.3375 164.363 26.6248C163.488 27.1627 162.786 27.9418 162.343 28.8687C161.899 29.7955 161.733 30.8306 161.863 31.8498C161.999 32.4251 162.309 32.9445 162.751 33.3373C161.931 33.6769 161.051 33.847 160.163 33.8373C160.663 32.3623 161.476 29.6998 161.688 28.6123C161.821 27.9923 161.851 27.3545 161.776 26.7248C161.679 26.1842 161.428 25.6831 161.053 25.2817C160.679 24.8804 160.196 24.5958 159.663 24.4623C156.626 23.5998 154.388 26.9623 154.826 30.0998C154.949 31.2241 155.432 32.2788 156.202 33.1073C156.972 33.9359 157.988 34.4943 159.101 34.6998C157.501 39.1998 155.001 46.4623 153.751 49.5623L151.001 48.8498C152.763 39.9998 152.976 40.2123 152.726 40.0998C149.885 36.4786 148.068 32.162 147.463 27.5998C147.169 25.3376 147.353 23.0387 148.006 20.8528C148.659 18.6668 149.764 16.6428 151.251 14.9123ZM168.601 34.0998C169.476 32.5123 171.226 29.0373 172.926 29.8873C173.266 30.0243 173.562 30.2515 173.782 30.5445C174.002 30.8375 174.138 31.1851 174.176 31.5498C174.151 33.7498 170.726 34.1373 168.551 34.0998H168.601ZM216.451 39.6123C217.957 38.7264 219.736 38.424 221.451 38.7623C223.334 38.796 225.133 39.549 226.479 40.8669C227.824 42.1848 228.615 43.9676 228.688 45.8498C227.556 45.1927 226.231 44.9455 224.938 45.1498C221.801 45.4248 217.701 47.1248 218.251 50.1498C218.701 52.6498 222.001 52.3123 224.501 51.6373C227.001 50.9623 228.988 49.7373 229.501 47.3248C232.538 49.5373 233.251 53.4123 233.376 57.1998C233.376 57.2528 233.397 57.3037 233.434 57.3412C233.472 57.3787 233.523 57.3998 233.576 57.3998C233.629 57.3998 233.68 57.3787 233.717 57.3412C233.755 57.3037 233.776 57.2528 233.776 57.1998C233.863 52.9623 233.101 48.8123 229.638 46.3998C229.674 45.3145 229.489 44.2333 229.094 43.2216C228.7 42.2099 228.104 41.2888 227.344 40.514C226.583 39.7392 225.673 39.1268 224.668 38.714C223.664 38.3012 222.586 38.0965 221.501 38.1123C219.765 37.8589 217.996 38.2216 216.501 39.1373C216.038 39.3623 216.251 39.6998 216.451 39.6123ZM227.851 48.5748C226.438 50.4248 222.438 51.3873 220.588 51.0748C219.901 50.9623 219.338 50.6748 219.188 49.9623C218.738 47.4623 223.051 46.0998 225.626 46.0123C226.674 45.9319 227.72 46.1999 228.601 46.7748C228.506 47.4283 228.248 48.0474 227.851 48.5748ZM210.726 24.9998C212.063 23.3498 211.163 20.4748 207.426 20.4623C205.976 20.4623 205.276 21.9373 205.376 23.3498C205.601 26.7123 209.388 26.6123 210.726 24.9998ZM206.251 23.2873C206.251 22.4623 206.638 21.3873 207.501 21.3998C209.513 21.3998 210.438 22.3373 210.438 23.3748C210.388 25.7373 206.088 26.9623 206.251 23.2873ZM205.738 165C194.751 160.612 189.651 181.85 180.676 200.1C180.619 200.867 180.644 201.638 180.751 202.4C180.751 204.312 180.963 216.975 182.076 218.412C182.376 218.987 183.638 218.412 184.226 218.05C189.215 214.961 193.918 211.43 198.276 207.5C198.313 207.457 198.341 207.408 198.358 207.354C198.375 207.3 198.381 207.243 198.376 207.187C200.701 203.875 209.413 186.625 211.526 177.975C213.001 171.85 211.538 167.287 205.738 165ZM209.663 180.875C203.781 180.121 198.094 178.264 192.901 175.4C195.826 169.862 199.438 163.55 205.401 165.925C212.038 168.562 211.901 174.025 209.663 180.837V180.875ZM188.863 213.375C188.479 213.053 188.06 212.776 187.613 212.55C185.924 211.691 183.972 211.503 182.151 212.025C182.026 210.537 181.313 200.862 181.313 200.775C190.676 204.2 187.788 202.712 197.063 207.325C196.088 208.25 192.426 210.812 188.863 213.35V213.375ZM195.313 177.2C196.532 177.866 197.784 178.471 199.063 179.012C196.198 183.513 193.666 188.217 191.488 193.087C189.388 197.475 189.463 197.45 187.326 202.237C186.076 201.837 184.826 201.462 183.576 201.087C184.926 198.4 194.526 178.75 195.313 177.175V177.2ZM187.813 202.362C191.876 195.075 196.013 186.012 199.563 179.175C200.813 179.7 202.063 180.125 203.313 180.5C202.651 181.75 200.713 185.075 200.201 186.037C199.688 187 194.551 197.125 194.188 197.9C193.613 199.15 192.038 202.637 191.551 203.75C190.276 203.187 189.051 202.762 187.763 202.337L187.813 202.362ZM192.001 203.912C192.763 202.525 195.901 196.7 196.288 195.95C196.876 194.787 203.426 181.4 203.788 180.625C204.938 180.95 206.151 181.225 206.926 181.375C204.638 187.625 198.051 199.662 195.676 205.6C193.513 204.587 193.026 204.337 191.951 203.887L192.001 203.912ZM192.763 175.762L195.001 177.012C190.492 184.691 186.564 192.697 183.251 200.962L181.376 200.387C188.638 184.912 188.976 182.887 192.713 175.737L192.763 175.762ZM197.913 206.687L196.026 205.787C198.063 201.787 204.438 191.525 207.351 181.462C208.051 181.587 208.738 181.7 209.401 181.787C206.188 190.358 202.332 198.674 197.863 206.662L197.913 206.687ZM158.751 214.8C159.249 214.387 159.605 213.829 159.769 213.203C159.932 212.577 159.896 211.916 159.663 211.312C159.557 210.441 159.158 209.632 158.531 209.019C157.904 208.405 157.086 208.023 156.213 207.936C155.34 207.848 154.464 208.061 153.727 208.538C152.991 209.016 152.44 209.73 152.163 210.562C150.563 209.525 148.826 208.425 147.163 207.375C148.413 205.712 152.088 206.45 152.463 207.812C152.471 207.865 152.5 207.913 152.544 207.945C152.587 207.976 152.641 207.989 152.694 207.981C152.747 207.973 152.795 207.944 152.827 207.9C152.858 207.857 152.871 207.803 152.863 207.75C152.676 205.575 148.151 204.3 146.326 206.862C144.713 205.875 142.713 204.675 141.038 203.762C142.476 202.512 145.688 203.212 146.038 204.512C146.055 204.557 146.086 204.594 146.128 204.617C146.169 204.64 146.217 204.648 146.264 204.639C146.31 204.63 146.352 204.605 146.382 204.568C146.411 204.531 146.427 204.485 146.426 204.437C146.263 202.412 142.076 201.05 140.176 203.275C139.38 202.829 138.542 202.46 137.676 202.175C137.517 202.109 137.343 202.091 137.175 202.122C137.006 202.153 136.85 202.232 136.726 202.35C133.563 206.287 122.901 216.512 117.976 217.7C117.852 217.718 117.735 217.769 117.637 217.847C117.539 217.926 117.464 218.028 117.418 218.145C117.373 218.261 117.358 218.388 117.377 218.512C117.396 218.635 117.447 218.752 117.526 218.85C118.607 219.947 119.846 220.878 121.201 221.612C119.951 222.862 118.976 223.987 118.251 224.8C117.876 225.2 117.676 232.85 118.001 234.537C118.049 234.702 118.156 234.845 118.301 234.937C119.876 236.012 140.163 244.787 142.238 243.612C143.626 242.825 160.188 225.587 160.451 225.062C160.851 224.237 160.713 218.737 160.688 216.537C160.588 215.875 159.351 215.162 158.751 214.8ZM118.751 231.312V228.525C123.938 231.025 135.813 236.125 140.313 237.55C141.463 237.925 141.563 237.875 142.163 237.55C145.601 235.35 157.738 221.675 159.963 219.587V222.225C153.213 228.987 141.751 240.837 141.538 240.162C140.301 240.087 119.826 231.812 118.751 231.312ZM158.438 210.587C158.888 211.344 159.129 212.207 159.138 213.087C159.134 213.367 159.065 213.643 158.937 213.892C158.809 214.141 158.626 214.358 158.401 214.525C157.351 213.825 155.363 212.525 153.013 211C154.301 208.462 157.163 208.425 158.388 210.587H158.438ZM118.438 218.587C123.763 217.012 133.876 207.262 137.276 203.037C138.094 203.265 138.883 203.588 139.626 204C138.376 206.325 139.713 208.875 140.188 208.512C140.451 208.312 139.976 208.237 139.901 207.012C139.869 206.117 140.071 205.23 140.488 204.437C142.213 205.337 144.238 206.512 145.951 207.5C144.901 209.837 146.163 212.15 146.601 211.812C147.038 211.475 146.401 211.55 146.326 210.325C146.295 209.521 146.449 208.722 146.776 207.987C148.538 209.025 150.338 210.1 151.988 211.112C151.734 211.735 151.633 212.41 151.694 213.08C151.755 213.75 151.976 214.395 152.338 214.962C152.355 214.984 152.375 215.002 152.398 215.015C152.422 215.028 152.447 215.037 152.474 215.041C152.501 215.044 152.528 215.042 152.554 215.035C152.58 215.028 152.604 215.016 152.626 215C152.647 214.983 152.665 214.963 152.678 214.94C152.692 214.916 152.7 214.891 152.704 214.864C152.707 214.837 152.706 214.81 152.699 214.784C152.692 214.758 152.68 214.734 152.663 214.712C152.439 214.216 152.328 213.675 152.338 213.13C152.349 212.585 152.481 212.05 152.726 211.562C155.638 213.337 157.988 214.825 158.713 215.312C158.576 215.437 145.538 227.037 141.101 230.487C138.188 229.725 122.901 222.137 118.438 218.587ZM118.913 225.55C124.576 228.05 137.438 233.85 140.401 234.412C140.913 234.512 141.113 234.55 142.088 233.775C146.251 230.437 159.788 216.275 159.913 216.425C159.919 216.462 159.919 216.5 159.913 216.537V219.037C157.126 221.275 141.626 237.55 141.376 236.775C140.126 236.775 119.813 228.487 118.776 228.025C118.751 227.5 118.863 226.1 118.913 225.55ZM141.676 242.775C140.426 243.487 121.388 235.75 118.838 234.175C118.742 233.378 118.696 232.577 118.701 231.775C124.176 234.475 140.101 241.2 141.563 241.137C143.701 241.025 158.813 224.012 159.888 222.825C159.901 223.463 159.838 224.101 159.701 224.725C159.488 225.137 142.501 242.312 141.676 242.775ZM38.1131 172.312C38.2006 173.65 38.2631 174.812 38.2631 175.9C38.2631 176.066 38.329 176.225 38.4462 176.342C38.5634 176.459 38.7224 176.525 38.8881 176.525C39.0539 176.525 39.2129 176.459 39.3301 176.342C39.4473 176.225 39.5131 176.066 39.5131 175.9C39.5131 174.737 39.4506 173.587 39.3631 172.225C39.3515 172.059 39.2746 171.905 39.1492 171.796C39.0237 171.687 38.8602 171.632 38.6944 171.644C38.5286 171.655 38.3743 171.732 38.2653 171.858C38.1563 171.983 38.1015 172.147 38.1131 172.312ZM228.576 147.25C228.494 147.255 228.414 147.276 228.341 147.312C228.267 147.348 228.202 147.398 228.148 147.46C228.095 147.522 228.054 147.593 228.029 147.671C228.003 147.749 227.994 147.831 228.001 147.912C228.076 149.062 228.151 150.3 228.151 151.5C228.151 151.666 228.216 151.825 228.334 151.942C228.451 152.059 228.61 152.125 228.776 152.125C228.941 152.125 229.1 152.059 229.218 151.942C229.335 151.825 229.401 151.666 229.401 151.5C229.401 150.25 229.326 149 229.238 147.825C229.233 147.743 229.212 147.663 229.176 147.59C229.14 147.517 229.09 147.451 229.028 147.398C228.966 147.344 228.895 147.303 228.817 147.278C228.739 147.253 228.657 147.243 228.576 147.25ZM34.8756 169.2C35.0414 169.2 35.2004 169.134 35.3176 169.017C35.4348 168.9 35.5006 168.741 35.5006 168.575C35.5006 168.409 35.4348 168.25 35.3176 168.133C35.2004 168.016 35.0414 167.95 34.8756 167.95C33.3631 167.95 32.1006 168.062 30.8506 168.037C30.6837 168.037 30.5234 168.103 30.4042 168.22C30.285 168.336 30.2164 168.495 30.2131 168.662C30.2131 168.828 30.279 168.987 30.3962 169.104C30.5134 169.221 30.6724 169.287 30.8381 169.287C32.1256 169.312 33.5381 169.262 34.8756 169.2ZM224.701 143.55C223.201 143.55 221.938 143.637 220.676 143.65C220.51 143.65 220.351 143.716 220.234 143.833C220.116 143.95 220.051 144.109 220.051 144.275C220.051 144.441 220.116 144.6 220.234 144.717C220.351 144.834 220.51 144.9 220.676 144.9C222.026 144.9 223.426 144.9 224.776 144.8C224.941 144.79 225.096 144.714 225.207 144.59C225.317 144.466 225.373 144.303 225.363 144.137C225.353 143.972 225.278 143.817 225.154 143.706C225.029 143.596 224.866 143.54 224.701 143.55ZM37.7756 161.475C37.8506 162.625 37.9256 163.862 37.9256 165.062C37.9288 165.227 37.9957 165.384 38.1122 165.501C38.2288 165.617 38.3859 165.684 38.5506 165.687C38.7164 165.687 38.8754 165.621 38.9926 165.504C39.1098 165.387 39.1756 165.228 39.1756 165.062C39.1756 163.812 39.1006 162.562 39.0256 161.387C39.014 161.222 38.9371 161.067 38.8117 160.958C38.6862 160.849 38.5227 160.794 38.3569 160.806C38.1911 160.818 38.0368 160.895 37.9278 161.02C37.8188 161.145 37.764 161.309 37.7756 161.475ZM229.063 140.662C229.063 139.412 228.988 138.162 228.901 136.987C228.889 136.822 228.812 136.667 228.687 136.558C228.561 136.449 228.398 136.394 228.232 136.406C228.066 136.418 227.912 136.495 227.803 136.62C227.694 136.745 227.639 136.909 227.651 137.075C227.726 138.225 227.801 139.462 227.801 140.662C227.801 140.828 227.866 140.987 227.984 141.104C228.101 141.221 228.26 141.287 228.426 141.287C228.593 141.287 228.753 141.222 228.872 141.105C228.991 140.988 229.06 140.829 229.063 140.662ZM47.0006 169.037C47.0827 169.034 47.1634 169.015 47.238 168.98C47.3126 168.946 47.3797 168.897 47.4354 168.837C47.4911 168.776 47.5344 168.706 47.5628 168.628C47.5911 168.551 47.604 168.469 47.6006 168.387C47.588 168.224 47.514 168.071 47.3935 167.96C47.2729 167.848 47.1147 167.787 46.9506 167.787C45.4381 167.85 44.1756 167.9 42.9131 167.875C42.7474 167.875 42.5884 167.941 42.4712 168.058C42.354 168.175 42.2881 168.334 42.2881 168.5C42.2881 168.666 42.354 168.825 42.4712 168.942C42.5884 169.059 42.7474 169.125 42.9131 169.125C44.2506 169.15 45.6506 169.1 47.0006 169.037ZM236.826 143.387C235.576 143.45 234.188 143.487 232.801 143.487C232.718 143.484 232.636 143.497 232.559 143.527C232.481 143.556 232.411 143.6 232.351 143.658C232.292 143.715 232.244 143.783 232.212 143.859C232.18 143.935 232.163 144.017 232.163 144.1C232.163 144.267 232.229 144.427 232.345 144.546C232.462 144.665 232.621 144.734 232.788 144.737C234.213 144.737 235.363 144.737 236.876 144.637C236.958 144.634 237.038 144.615 237.113 144.58C237.188 144.546 237.255 144.497 237.31 144.437C237.366 144.376 237.409 144.306 237.438 144.228C237.466 144.151 237.479 144.069 237.476 143.987C237.46 143.825 237.385 143.674 237.265 143.563C237.145 143.452 236.989 143.39 236.826 143.387ZM18.2756 132C18.4381 132.125 53.6881 126.9 55.2006 125.975C55.2844 125.914 55.3513 125.832 55.395 125.738C55.4387 125.644 55.4579 125.541 55.4506 125.437C55.4506 123.825 53.3381 108.687 52.3256 104.912C52.2006 104.45 52.0756 103.987 51.7881 103.825C49.8756 102.675 16.1756 109.025 14.1631 110.325C14.1086 110.357 14.0615 110.4 14.0249 110.452C13.9882 110.504 13.963 110.563 13.9506 110.625C13.5256 112.137 17.1881 131.25 18.2756 132ZM14.7131 110.925C17.1131 109.837 47.7006 104.237 51.2006 104.675C52.0506 106.862 54.3256 122.887 54.4756 125.237C52.7381 125.75 18.7506 131.587 18.6256 131.612C18.5006 131.637 18.4881 131.787 18.2256 131C17.1256 127.7 14.6506 113.75 14.7131 110.925Z" fill="white"/>
<path d="M57.9506 127.087C58.0186 126.961 58.049 126.818 58.0381 126.675C58.0381 124.687 55.1881 102.625 54.1756 100.862C54.0962 100.732 53.9839 100.626 53.8499 100.553C53.716 100.481 53.5653 100.445 53.4131 100.45C49.2256 99.9373 13.9006 106.837 11.5756 108.45C11.2506 108.675 11.3006 109.237 11.3381 109.837C11.5381 113.125 15.0881 134.75 16.3381 134.625C16.4756 134.625 16.4256 134.525 16.1006 135.187C14.1506 139.2 10.4506 152.05 10.5256 154.637C10.5256 155.725 10.7756 157.137 11.8506 157.062C19.5631 156.112 57.3756 150.112 68.2506 147.875C68.6756 147.787 68.9506 147.4 68.9381 146.762C68.8098 145.7 68.4878 144.671 67.9881 143.725C66.4631 140.862 60.1381 129.525 57.9506 127.087ZM16.4131 134.237C15.4381 132.987 11.8506 111.45 12.1256 109.062C14.8756 107.637 49.7256 100.9 53.3756 101.45C54.3756 104.2 56.9631 124.062 57.1256 126.45C52.7006 127.975 22.0631 132.925 16.4131 134.237ZM16.9631 134.612C18.0131 134.35 53.7756 128.362 57.0506 127.5C58.8381 129.162 66.9131 143.525 67.4381 144.75C60.2631 146 17.7006 153.112 11.4381 154.062C11.5256 150.275 15.4131 137.037 16.9631 134.612Z" fill="white"/>
<path d="M21.6628 147.575C22.7503 147.412 45.8253 144.637 54.1628 142.375C54.2142 142.362 54.2582 142.329 54.2852 142.283C54.3121 142.237 54.3198 142.183 54.3066 142.131C54.2933 142.08 54.2602 142.036 54.2145 142.009C54.1687 141.982 54.1142 141.974 54.0628 141.987C52.4253 142.325 32.4503 144.987 21.6378 147.187C21.6079 147.182 21.5772 147.184 21.548 147.192C21.5188 147.2 21.4919 147.215 21.4692 147.235C21.4466 147.255 21.4288 147.28 21.4173 147.308C21.4058 147.337 21.4009 147.367 21.4028 147.397C21.4048 147.427 21.4136 147.457 21.4286 147.483C21.4436 147.51 21.4645 147.532 21.4895 147.549C21.5146 147.567 21.5432 147.578 21.5732 147.582C21.6032 147.587 21.6339 147.584 21.6628 147.575ZM38.5253 60.6C38.0584 61.6546 37.6657 62.7406 37.3503 63.85C37.3317 64.028 37.3808 64.2065 37.4878 64.35C38.7503 66.25 51.6878 80.8375 55.0628 82.8875C55.5253 83.175 56.0753 83.375 56.4128 82.9625C58.8645 79.9118 62.0641 77.5476 65.7003 76.1C68.6598 75.0529 71.7627 74.4669 74.9003 74.3625C77.4003 74.1375 77.8378 73.8875 78.8003 72.25C79.9357 70.0949 81.4421 68.157 83.2503 66.525C85.556 64.509 88.1151 62.8029 90.8628 61.45C90.9865 61.3799 91.0832 61.2704 91.1376 61.1391C91.1919 61.0077 91.2008 60.862 91.1628 60.725C90.7402 59.6497 90.1815 58.6331 89.5003 57.7C89.9503 57.55 90.4503 57.4125 90.4503 56.9625C90.4503 55.7125 79.5503 39.9375 76.5253 36.9625C76.2128 36.65 75.7628 36.2375 75.3503 36.2625C69.1003 36.6125 63.0128 42.5125 59.4878 47.6625C55.4503 47.5125 52.8378 47.15 48.2378 49.0875C44.9904 50.4659 42.0626 52.5 39.6378 55.0625C39.2628 55.45 36.7128 58.15 36.6753 58.3625C36.6378 58.575 36.7128 58.575 38.5253 60.6ZM88.5253 60.25C83.3128 61.1375 79.9878 65.475 77.5378 70.1875C76.4503 72.2875 76.5503 72.3875 75.4003 72.3625C73.3894 72.2486 71.3722 72.3239 69.3753 72.5875C67.9107 72.8064 66.4706 73.1664 65.0753 73.6625C61.9003 74.7875 58.2628 78.3875 56.3253 81.0625C56.2841 81.1175 56.2318 81.1632 56.1718 81.1966C56.1117 81.2299 56.0453 81.2503 55.9768 81.2561C55.9084 81.2621 55.8394 81.2534 55.7745 81.2308C55.7096 81.2082 55.6503 81.1721 55.6003 81.125C51.5378 76.9375 44.3503 69.5875 40.7378 65.3625C40.5628 65.175 40.8628 64.9 41.0378 65.1C43.3753 67.6 49.4128 73.5875 55.8878 80.1C58.0753 77.3125 61.4503 73.9375 64.7878 72.7625C66.6078 72.1133 68.5015 71.6934 70.4253 71.5125C72.2269 71.3756 74.0362 71.3756 75.8378 71.5125C76.5753 70.6625 80.2253 61.0125 88.5003 59.9375C88.5245 59.9552 88.5444 59.9782 88.5585 60.0048C88.5727 60.0313 88.5806 60.0607 88.5818 60.0907C88.583 60.1207 88.5774 60.1506 88.5655 60.1782C88.5535 60.2058 88.5355 60.2303 88.5128 60.25H88.5253ZM75.3378 37.275C77.8378 39.025 88.0128 54.0875 89.3378 56.725C87.0387 57.4535 84.819 58.4125 82.7128 59.5875C80.7183 60.5873 78.9719 62.0195 77.6009 63.7797C76.2299 65.5399 75.2689 67.5838 74.7878 69.7625C70.3003 62.4625 64.0378 54.425 59.8753 48.5125C60.1253 48.35 67.1503 37.7625 75.3378 37.275ZM48.5128 49.775C53.0753 47.9375 55.6003 48.3625 59.3753 48.525C63.1253 54.925 69.8628 63.95 74.3003 69.8625C70.2046 68.8933 65.8948 69.4861 62.2128 71.525C60.0003 72.775 57.3003 75.775 55.6378 77.6375C53.2378 75.7125 39.3878 60.9625 37.1628 58.4625C40.5878 54.5875 43.7503 51.675 48.5128 49.725V49.775ZM25.6378 81.5625C25.3289 81.3456 24.9636 81.2232 24.5864 81.2098C24.2092 81.1965 23.8363 81.293 23.5128 81.4875C23.2772 81.5925 23.0647 81.7429 22.8873 81.9302C22.7098 82.1174 22.571 82.3377 22.4788 82.5785C22.3865 82.8194 22.3425 83.076 22.3495 83.3339C22.3564 83.5917 22.414 83.8456 22.5191 84.0812C22.6241 84.3168 22.7745 84.5293 22.9617 84.7068C23.149 84.8842 23.3693 85.023 23.6101 85.1153C23.851 85.2076 24.1076 85.2515 24.3655 85.2446C24.6233 85.2377 24.8772 85.18 25.1128 85.075C25.4891 84.9927 25.8315 84.798 26.0946 84.5166C26.3577 84.2353 26.5291 83.8806 26.5861 83.4997C26.643 83.1187 26.5828 82.7294 26.4135 82.3835C26.2441 82.0375 25.9736 81.7512 25.6378 81.5625ZM24.8128 84.0625C23.9378 84.3375 23.4128 84.0625 23.2003 83.6375C22.8003 82.75 23.3003 81.3875 24.6003 81.7875C25.5128 82.125 26.2503 83.6625 24.8128 84.125V84.0625ZM89.2003 24.3625C89.5628 25.1 91.2503 24.825 91.9878 24.5875C92.3753 24.4625 92.6253 24.325 92.6628 23.95C92.7753 23.0125 92.9003 14.8875 92.4753 14.1C92.4314 14.0174 92.3641 13.9496 92.2818 13.9051C92.1995 13.8607 92.1059 13.8415 92.0128 13.85C90.6791 13.8463 89.3522 14.04 88.0753 14.425C87.5628 14.7375 88.7503 23.5375 89.2003 24.3625ZM88.3378 14.725C89.4925 14.5598 90.6603 14.5054 91.8253 14.5625C91.9003 15.4875 91.7003 23.5 91.6878 23.625C91.1597 23.8142 90.5958 23.8825 90.0378 23.825C89.9503 23.5375 89.8003 22.7625 89.6128 21.7875C89.062 19.4577 88.6364 17.1002 88.3378 14.725ZM24.4253 71.0125C24.5452 71.0739 24.6781 71.1059 24.8128 71.1059C24.9476 71.1059 25.0804 71.0739 25.2003 71.0125C25.6832 70.7146 26.0662 70.2793 26.3003 69.7625C26.3321 69.6797 26.3419 69.5902 26.3288 69.5026C26.3156 69.4149 26.28 69.3322 26.2253 69.2625C25.6253 68.55 19.0753 60.9625 18.2753 61.4375C17.2931 62.0733 16.3612 62.7838 15.4878 63.5625C15.4526 63.5939 15.4244 63.6325 15.405 63.6755C15.3857 63.7186 15.3755 63.7652 15.3753 63.8125C15.3503 64.4625 22.6253 70.2875 24.4253 71.0125ZM18.4253 61.7625C19.3378 62.425 22.4128 66.225 25.2628 69.5875C25.1402 69.7805 24.9884 69.9534 24.8128 70.1C21.8164 68.1822 18.9555 66.0605 16.2503 63.75C16.9285 63.0379 17.6552 62.3738 18.4253 61.7625ZM38.0628 34.1875C38.3378 29.3375 41.1628 27.0875 44.1128 26.5125C43.2753 29.5875 43.4128 33.5875 46.4503 34.1C47.9003 34.3375 48.6128 33.5875 49.6628 32.7125C54.1503 28.9625 50.5253 25.2125 45.4628 25.475C47.3503 20.3 51.7128 16.0875 57.5003 15.95C57.5533 15.95 57.6042 15.9289 57.6417 15.8914C57.6792 15.8539 57.7003 15.803 57.7003 15.75C57.7003 15.6969 57.6792 15.646 57.6417 15.6085C57.6042 15.571 57.5533 15.55 57.5003 15.55C51.2503 15.425 46.3378 19.925 44.4003 25.55C41.0628 26.125 37.7503 28.625 37.6628 34.1125C37.6579 34.1387 37.6582 34.1657 37.6637 34.1918C37.6692 34.218 37.6798 34.2428 37.6949 34.2649C37.71 34.2869 37.7292 34.3058 37.7516 34.3204C37.774 34.335 37.799 34.345 37.8253 34.35C37.8516 34.3549 37.8785 34.3546 37.9047 34.3491C37.9308 34.3436 37.9557 34.333 37.9777 34.3179C37.9998 34.3028 38.0186 34.2835 38.0332 34.2611C38.0478 34.2388 38.0579 34.2137 38.0628 34.1875ZM45.1753 26.3625C47.0378 26.2375 49.8128 26.8125 50.5753 28.5C51.0128 29.4625 50.5753 30.65 49.0253 31.95C48.6045 32.3715 48.1244 32.7295 47.6003 33.0125C45.7253 33.8125 43.6503 31.5 45.1753 26.3625ZM48.7503 203.15C47.5426 202.826 46.2825 202.748 45.0439 202.919C43.8054 203.089 42.6136 203.506 41.5385 204.144C40.4635 204.783 39.527 205.63 38.7841 206.635C38.0412 207.641 37.507 208.785 37.2128 210C36.6575 212.525 37.1278 215.166 38.5203 217.344C39.9127 219.522 42.1133 221.057 44.6378 221.612C47.1623 222.168 49.8041 221.697 51.9818 220.305C54.1596 218.913 55.695 216.712 56.2503 214.187C56.4875 212.97 56.4814 211.717 56.2322 210.502C55.9831 209.287 55.4959 208.133 54.7987 207.107C54.1015 206.081 53.2081 205.203 52.17 204.524C51.1319 203.845 49.9697 203.378 48.7503 203.15ZM52.6128 213.337C52.1113 215.338 50.9106 217.093 49.2278 218.285C47.545 219.477 45.4913 220.028 43.4378 219.837C41.5528 219.101 39.9879 217.723 39.0185 215.947C38.0491 214.17 37.7372 212.109 38.1378 210.125C38.6055 208.076 39.7951 206.264 41.4889 205.02C43.1828 203.776 45.2678 203.183 47.3628 203.35C49.2664 204.136 50.8316 205.569 51.7828 207.396C52.734 209.223 53.0102 211.327 52.5628 213.337H52.6128Z" fill="white"/>
<path d="M65.4008 206.712C64.3126 206.337 63.1463 206.246 62.0133 206.45C61.5437 205.373 60.9657 204.347 60.2883 203.387C61.1008 202.65 63.3258 200.6 62.7883 199.637C60.8754 197.349 58.6043 195.386 56.0633 193.825C55.0022 193.23 53.8339 192.852 52.6258 192.712C51.8258 192.825 49.9258 195.937 49.5008 196.637C49.2258 196.637 48.2508 196.325 48.1758 196.287C48.1758 195.387 47.9133 192.137 47.1008 191.762C46.1922 191.428 45.2487 191.197 44.2883 191.075C43.4008 190.937 35.4133 192.4 34.8258 193.475C34.4383 194.2 35.3383 196.937 35.6008 197.7C34.9266 198.071 34.2792 198.488 33.6633 198.95C32.4133 199.837 32.7508 199.8 32.5258 199.7C32.2538 199.57 31.9625 199.485 31.6633 199.45C30.6647 198.864 29.494 198.643 28.3508 198.825C27.2008 199.2 24.4883 205.375 24.0508 206.962C23.9076 207.363 23.8689 207.793 23.9383 208.212C24.2383 209.037 26.2383 209.7 27.0758 209.962C26.8445 211.571 26.8445 213.204 27.0758 214.812C25.9758 215.112 23.6883 215.787 23.8133 216.912C23.9383 218.037 26.8633 225.462 28.0758 226.05C28.74 226.421 29.4745 226.65 30.2322 226.721C30.9899 226.792 31.7541 226.704 32.4758 226.462C32.8822 226.259 33.2748 226.03 33.6508 225.775C34.1508 226.15 34.6758 226.487 35.2133 226.812C34.8258 227.775 33.9633 229.925 34.2383 230.9C34.3758 231.412 34.7883 231.575 35.3633 231.787C36.9508 232.362 45.5008 234.412 46.8008 234.187C47.2883 234.112 47.5508 233.6 47.7008 233.112C47.9785 232.003 48.1419 230.868 48.1883 229.725C48.8302 229.661 49.4686 229.565 50.1008 229.437C50.4869 230.117 50.9808 230.729 51.5633 231.25C52.2008 231.7 52.7383 231.475 53.4633 231.012C53.8133 231.462 54.3383 232.087 54.9008 232.15C56.3133 232.312 62.1508 226.812 62.7508 225.687C63.2508 224.75 61.4258 223.075 60.6133 222.337C61.4922 221.015 62.1822 219.576 62.6633 218.062C63.5648 218.198 64.4772 218.248 65.3883 218.212C65.8008 218.212 66.2758 218.062 66.4508 217.675C67.2133 215.937 66.9883 209.35 66.4508 207.675C66.3758 207.187 65.8133 206.862 65.4008 206.712ZM65.7008 207.862C66.1258 209.487 66.2633 215.625 65.6383 217.212C64.5575 217.319 63.467 217.268 62.4008 217.062C62.2869 217.043 62.1699 217.067 62.0728 217.129C61.9756 217.192 61.9053 217.288 61.8758 217.4C61.378 219.09 60.6051 220.686 59.5883 222.125C59.5158 222.22 59.4832 222.34 59.4972 222.459C59.5112 222.578 59.5707 222.686 59.6633 222.762C60.5403 223.457 61.2854 224.304 61.8633 225.262C61.2383 226.287 56.3508 230.762 55.0008 231.137C54.8008 231.137 54.2508 230.387 54.1133 230.187C53.6515 229.493 53.234 228.771 52.8633 228.025C52.8092 227.916 52.7163 227.831 52.603 227.787C52.4897 227.743 52.3641 227.743 52.2508 227.787C48.6258 229.15 47.2508 228.35 47.2508 229.25C47.2524 230.597 47.0328 231.936 46.6008 233.212C43.6632 232.893 40.7704 232.247 37.9758 231.287C38.1107 229.953 38.4833 228.653 39.0758 227.45C39.4508 226.612 37.9508 226.85 35.1508 224C35.0607 223.916 34.9424 223.87 34.8195 223.87C34.6967 223.87 34.5784 223.916 34.4883 224C33.2383 225.025 31.6133 226.025 31.2883 225.862C30.6508 225.55 27.7133 218.887 27.5383 217.537C28.4273 216.918 29.4366 216.492 30.5008 216.287C30.6143 216.255 30.7123 216.183 30.7766 216.084C30.841 215.985 30.8673 215.867 30.8508 215.75C30.5444 213.98 30.5444 212.17 30.8508 210.4C30.8699 210.291 30.847 210.179 30.7867 210.086C30.7264 209.993 30.6331 209.927 30.5258 209.9C29.5834 209.653 28.6762 209.287 27.8258 208.812C27.5508 208.612 27.5758 208.625 27.6008 208.412C28.4098 205.494 29.7074 202.734 31.4383 200.25C32.1133 200.062 33.9383 201.4 34.5633 201.875C34.6286 201.938 34.716 201.974 34.807 201.974C34.898 201.974 34.9855 201.938 35.0508 201.875C35.6251 201.279 36.2435 200.727 36.9008 200.225C38.8008 198.787 39.3133 198.975 39.1508 198.475C38.5761 197.221 38.2534 195.866 38.2008 194.487C38.3945 194.326 38.6143 194.199 38.8508 194.112C40.0178 193.651 41.2168 193.275 42.4383 192.987C43.9189 192.575 45.4407 192.327 46.9758 192.25C47.2383 192.362 47.4758 193.5 47.5383 193.85C48.0008 196.35 47.6883 196.862 48.0508 196.9C51.6133 197.25 52.3383 198.237 52.5883 197.8C53.2814 196.588 54.0893 195.445 55.0008 194.387C55.2633 194.125 55.2508 194 56.0383 194.45C58.3909 195.987 60.498 197.871 62.2883 200.037C62.4758 200.362 60.8508 202.087 59.6633 203.1C59.2508 203.462 59.8383 203.625 60.9133 205.675C61.9883 207.725 61.7383 208.3 62.3133 208.175C63.4217 207.909 64.5625 207.804 65.7008 207.862ZM239.188 103.412C236.568 102.342 233.82 101.615 231.013 101.25C228.963 100.925 226.551 100.6 224.513 100.337C226.476 97.5622 232.288 90.5372 233.263 88.8247C233.538 88.3622 233.013 87.7122 232.626 87.3247C230.451 84.9997 226.251 84.1247 223.026 83.6247C221.176 83.3247 213.451 82.3747 212.138 82.9997C210.563 83.7497 198.913 101.25 198.563 103.912C198.563 104.362 198.713 104.537 199.151 104.7C200.988 105.375 209.276 106.425 211.126 106.862C208.626 111.237 197.513 126.025 196.426 128.112C196.163 128.637 196.326 128.95 196.638 129.05C197.763 129.496 198.921 129.856 200.101 130.125C200.551 130.262 201.538 129.65 202.976 128.775C209.426 124.9 237.101 106.625 239.226 104.262C239.284 104.207 239.33 104.139 239.361 104.065C239.391 103.99 239.405 103.909 239.401 103.829C239.398 103.748 239.377 103.669 239.34 103.597C239.303 103.525 239.252 103.462 239.188 103.412ZM212.326 118.412C201.701 125.425 198.113 127.475 197.988 127.562C199.701 124.95 210.338 110.375 212.163 106.887C212.195 106.82 212.211 106.746 212.211 106.672C212.211 106.597 212.194 106.524 212.161 106.457C212.129 106.39 212.082 106.331 212.024 106.284C211.966 106.237 211.898 106.204 211.826 106.187C210.576 105.737 201.476 104.762 199.326 104C199.601 101.675 210.951 84.0997 212.326 83.3997C213.701 82.6997 227.038 84.2872 229.538 86.0747C228.226 88.6372 220.976 97.6122 219.801 99.6997C219.563 100.125 219.488 100.537 219.951 100.65C220.413 100.762 232.163 102.137 234.726 102.975C231.601 105.587 215.826 116.062 212.326 118.362V118.412ZM132.138 41.9872C132.138 42.0997 132.213 42.2372 132.401 42.9622C132.45 43.1195 132.558 43.2516 132.703 43.3309C132.847 43.4101 133.017 43.4303 133.176 43.3872C133.335 43.3408 133.469 43.2331 133.549 43.0878C133.628 42.9424 133.647 42.7714 133.601 42.6122C133.476 42.1247 133.363 41.7122 133.288 41.5122C133.215 41.375 133.094 41.2698 132.948 41.2171C132.802 41.1645 132.641 41.1682 132.498 41.2275C132.354 41.2868 132.238 41.3975 132.171 41.538C132.105 41.6784 132.093 41.8386 132.138 41.9872Z" fill="white"/>
</svg>
