<svg width="250" height="250" viewBox="0 0 250 250" fill="none" xmlns="http://www.w3.org/2000/svg">
<path d="M136.641 81.9582C135.603 82.4907 137.313 84.3995 137.708 82.9145C137.771 82.4582 137.107 81.7182 136.641 81.9582Z" fill="black"/>
<path d="M142.659 80.2895C142.721 79.8332 142.059 79.097 141.591 79.3345C140.556 79.8745 142.264 81.7745 142.659 80.2895Z" fill="black"/>
<path d="M83.332 156.772C83.1705 156.81 83.0307 156.91 82.9432 157.051C82.8558 157.192 82.8279 157.362 82.8657 157.523C82.9035 157.685 83.0039 157.824 83.1448 157.912C83.2857 157.999 83.4555 158.027 83.6169 157.989C92.935 155.825 102.601 155.619 112.003 157.385C121.405 159.151 130.337 162.851 138.234 168.249C138.368 168.25 138.498 168.207 138.605 168.128C138.713 168.049 138.792 167.938 138.832 167.81C138.872 167.683 138.87 167.546 138.826 167.42C138.782 167.294 138.699 167.185 138.589 167.109C130.602 161.642 121.564 157.899 112.05 156.12C102.536 154.34 92.7553 154.562 83.332 156.772Z" fill="black"/>
<path d="M142.358 163.175C128.031 154.215 112.018 148.192 95.0294 150.691C94.8697 150.717 94.7266 150.805 94.6302 150.935C94.5338 151.065 94.4915 151.227 94.5124 151.388C94.5333 151.548 94.6157 151.695 94.7422 151.796C94.8687 151.897 95.0295 151.945 95.1907 151.93C105.664 150.556 116.315 151.935 126.094 155.93C131.488 158.32 136.702 161.096 141.697 164.236C141.838 164.323 142.007 164.352 142.169 164.314C142.33 164.277 142.47 164.177 142.558 164.036C142.646 163.895 142.674 163.725 142.637 163.564C142.599 163.402 142.499 163.262 142.358 163.175Z" fill="black"/>
<path d="M106.215 146.133C106.05 146.139 105.893 146.211 105.78 146.332C105.667 146.454 105.607 146.615 105.613 146.781C105.619 146.946 105.69 147.103 105.812 147.216C105.933 147.329 106.095 147.389 106.26 147.383C120.672 146.872 134.776 151.632 145.93 160.773C146.539 161.293 147.365 160.316 146.724 159.807C135.312 150.513 120.925 145.657 106.215 146.133Z" fill="black"/>
<path d="M102.778 141.582C102.612 141.594 102.458 141.671 102.349 141.797C102.24 141.923 102.186 142.087 102.198 142.252C102.21 142.418 102.288 142.572 102.414 142.681C102.539 142.79 102.703 142.844 102.869 142.832C120.28 141.542 137.518 147.018 150.994 158.119C151.598 158.641 152.431 157.663 151.786 157.154C138.054 145.867 120.507 140.291 102.778 141.582Z" fill="black"/>
<path d="M108.854 138.777C117.278 137.619 125.855 138.391 133.936 141.034C142.018 143.678 149.393 148.124 155.504 154.036C156.067 154.605 156.973 153.699 156.373 153.139C150.117 147.106 142.576 142.569 134.317 139.867C126.057 137.166 117.292 136.37 108.681 137.54C108.52 137.566 108.375 137.655 108.279 137.786C108.182 137.918 108.141 138.082 108.163 138.243C108.186 138.405 108.271 138.551 108.4 138.651C108.529 138.751 108.692 138.796 108.854 138.777Z" fill="black"/>
<path d="M44.7957 141.643C41.4019 142.463 41.1432 147.218 44.9769 147.268C50.1507 147.297 50.2644 140.321 44.7957 141.643ZM47.4207 144.886C47.053 145.329 46.5691 145.661 46.0233 145.844C45.4775 146.028 44.8914 146.056 44.3307 145.925C42.6257 145.3 43.4182 143.278 45.1782 142.833C46.5457 142.176 48.3682 143.508 47.4194 144.886H47.4207Z" fill="black"/>
<path d="M191.349 157.641C190.651 157.641 190.334 157.641 188.518 169.156C187.643 174.676 186.825 180.507 186.681 181.58C186.758 182.867 189.258 182.262 190.15 182.455C210.924 182.2 211.426 159.187 191.349 157.641ZM202.268 176.562C198.663 180.547 192.653 181.52 188.008 181.107C188.743 175.732 190.909 161.182 191.694 158.905C201.441 159.391 209.268 168.823 202.268 176.562Z" fill="black"/>
<path d="M243.479 69.182C241.161 67.4408 238.416 68.9195 236.338 67.0708C236.13 66.869 235.882 66.7132 235.61 66.6134C235.338 66.5136 235.048 66.472 234.759 66.4913C234.471 66.5106 234.189 66.5904 233.933 66.7256C233.677 66.8607 233.452 67.0482 233.273 67.2758C232.558 68.1575 232.144 69.2445 232.09 70.3783C224.726 77.9645 216.003 83.8258 202.34 87.1345C205.198 84.2024 207.533 80.8024 209.244 77.082C213.369 67.0208 196.653 59.332 189.369 57.5045C189.046 56.1408 190.034 53.9633 190.435 52.5658C190.891 50.7245 189.56 49.8158 188.585 50.3158C186.184 51.1083 185.031 53.7558 183.638 55.5795C180.914 59.2045 182.969 60.2983 186.168 61.9345C186.072 62.0583 186.03 62.2146 186.049 62.3696C186.069 62.5246 186.148 62.6656 186.271 62.762C187.924 64.4045 196.021 70.842 192.861 73.292C191.151 74.6133 186.028 78.572 183.053 81.1033C177.249 80.8233 174.716 80.8095 170.968 81.4558C170.922 81.4638 170.881 81.4867 170.851 81.5208C170.82 81.5549 170.802 81.5982 170.798 81.644C170.795 81.6897 170.807 81.7352 170.832 81.7734C170.858 81.8115 170.895 81.84 170.939 81.8545C181.995 87.187 183.983 101.471 180.409 111.667C182.863 111.497 187.165 111.772 189.203 110.823C196.903 110.06 207.788 107.948 213.52 104.69C219.387 101.494 224.472 97.0365 228.408 91.6378C232.343 86.2392 235.031 80.0343 236.278 73.4708C238.514 72.6372 240.808 71.9688 243.143 71.4708C244.225 71.3008 245.018 69.7258 243.479 69.182ZM194.283 60.4858C201.018 63.122 211.129 69.5958 208.105 76.5633C206.163 80.7961 203.384 84.5922 199.936 87.7233C198.713 88.0208 197.1 88.3383 195.85 88.6158C199.496 84.9842 202.812 81.0362 205.76 76.8183C206.587 75.7567 207.11 74.491 207.275 73.1558C206.635 68.787 202.525 67.5408 199.129 65.2183C197.372 64.2401 195.68 63.1499 194.064 61.9545C194.21 61.4786 194.283 60.9835 194.283 60.4858ZM187.424 61.2058L184.74 59.7358C184.063 59.3708 183.365 58.7945 183.709 57.9583C184.515 56.4805 185.435 55.0671 186.459 53.7308C187.058 52.6681 188.023 51.8598 189.174 51.457C189.264 51.502 189.326 51.862 189.249 52.1908C188.621 53.8555 188.187 55.5869 187.955 57.3508C187.882 57.7134 187.901 58.0886 188.01 58.4421C188.119 58.7956 188.315 59.1162 188.58 59.3745C188.425 60.1032 188.015 60.7527 187.424 61.2058ZM189.099 63.617C188.664 63.2183 188.251 62.8058 187.833 62.447C188.435 62.0789 188.938 61.5689 189.297 60.9616C189.657 60.3543 189.862 59.6682 189.895 58.9633C190.88 59.262 191.918 59.6083 192.956 59.9858C193.475 62.2858 191.273 64.722 189.099 63.617ZM181.563 82.2495C182.243 82.1883 183.049 82.5795 183.661 82.232C186.576 79.732 191.884 75.632 193.593 74.3108C197.054 71.5258 192.788 67.4445 190.528 65.0908C191.161 65.0643 191.776 64.8699 192.31 64.5275C192.844 64.185 193.277 63.7069 193.565 63.142C196.978 66.1695 204.983 68.4858 206.029 73.0895C205.876 74.1858 205.433 75.2214 204.746 76.0895C201.699 80.4568 198.252 84.5314 194.45 88.2608C193.833 87.5108 192.335 85.702 191.531 86.8233C191.499 86.8988 191.482 86.9801 191.481 87.0623C191.48 87.1445 191.495 87.2261 191.526 87.3024C191.557 87.3787 191.602 87.4481 191.66 87.5069C191.717 87.5656 191.786 87.6123 191.861 87.6445C192.617 88.0017 193.244 88.582 193.659 89.307C194.08 90.8733 196.806 89.5433 197.925 89.452C211.135 86.817 223.039 81.3658 230.13 73.952C230.95 74.1415 231.691 74.5778 232.255 75.202C225.141 92.9833 210.276 103.341 191.415 103.741C192.055 95.5108 189.465 86.2595 181.563 82.2495ZM226.769 91.8745C218.49 103.598 205.416 107.863 190.665 109.406C191.059 107.967 191.279 106.487 191.323 104.996C210.559 104.631 225.751 94.1858 233.163 76.2308C235.391 79.0458 228.875 88.8945 226.769 91.8745ZM234.625 75.2808C234.57 75.5033 234.5 75.722 234.441 75.9433C233.698 74.5915 232.518 73.5317 231.094 72.937C231.675 72.3595 232.481 71.112 233.319 71.4295C233.69 71.5573 234.027 71.7685 234.304 72.0467C234.581 72.325 234.791 72.663 234.917 73.0347C235.043 73.4065 235.082 73.8023 235.031 74.1916C234.981 74.5809 234.842 74.9535 234.625 75.2808ZM235.993 72.197C235.424 71.3572 234.642 70.6844 233.726 70.2483C232.871 70.267 233.96 68.3408 234.234 68.0645C235.065 66.607 237.446 70.6258 241.734 70.5383C239.791 70.9856 237.875 71.5394 235.993 72.197Z" fill="black"/>
<path d="M140.511 78.5858C141.099 78.422 141.771 78.0045 142.302 78.2883C142.456 78.3498 142.628 78.3476 142.78 78.2822C142.933 78.2168 143.053 78.0935 143.114 77.9396C143.176 77.7856 143.174 77.6134 143.108 77.4611C143.043 77.3087 142.92 77.1885 142.766 77.127C142.026 76.767 139.536 76.9408 139.974 78.2833C140.03 78.3757 140.109 78.4522 140.203 78.5052C140.297 78.5582 140.403 78.586 140.511 78.5858Z" fill="black"/>
<path d="M135.931 81.9069C136.064 81.4453 136.337 81.0364 136.713 80.7369C136.845 80.6375 136.933 80.4894 136.956 80.3253C136.98 80.1612 136.937 79.9945 136.838 79.8619C136.738 79.7293 136.59 79.6417 136.426 79.6182C136.262 79.5948 136.095 79.6375 135.963 79.7369C135.359 80.2098 134.924 80.864 134.72 81.6032C134.688 81.7609 134.718 81.9249 134.804 82.0611C134.889 82.1972 135.024 82.2951 135.181 82.3342C135.337 82.3734 135.502 82.3508 135.642 82.2712C135.782 82.1916 135.885 82.0611 135.931 81.9069Z" fill="black"/>
<path d="M142.218 85.1072C141.637 85.6722 142.537 86.5722 143.102 85.9909C143.352 85.7409 143.564 85.5009 143.779 85.2547C143.463 85.8034 143.112 86.5397 144.052 86.6797C145.279 86.3284 145.302 84.5009 144.54 83.6422C143.573 82.8134 142.909 84.6309 142.218 85.1072Z" fill="black"/>
<path d="M139.69 84.781C140.428 85.1285 142.006 83.931 141.105 83.1722C140.703 82.856 140.23 83.2972 140.049 83.5797C139.7 83.1885 140.511 80.4809 139.35 80.5272C139.184 80.5272 139.025 80.593 138.908 80.7103C138.791 80.8275 138.725 80.9864 138.725 81.1522C138.806 82.1597 138.325 84.4647 139.69 84.781Z" fill="black"/>
<path d="M217.547 160.228C213.45 151.936 203.172 147.023 191.13 145.036C196.12 140.542 198.109 138.682 198.232 138.437C198.743 136.411 198.39 129.403 199.38 127.538C199.431 127.406 199.439 127.26 199.402 127.122C199.365 126.985 199.285 126.863 199.174 126.773C192.29 122.078 184.76 118.407 176.82 115.875C183.789 104.89 180.833 85.1722 166.389 81.456C169.112 77.5697 166.272 71.6322 161.503 72.0235C158.353 72.0707 155.213 72.3788 152.114 72.9447C152.903 72.2797 152.489 70.8197 151.924 70.2847C154.459 68.8585 151.244 64.3672 148.799 64.5922C148.924 62.6672 147.582 59.1497 145.325 60.6822C144.665 59.7091 143.828 58.8676 142.859 58.201C141.597 57.451 139.975 57.2772 139.278 58.6372C138.236 57.9687 137.062 57.531 135.837 57.3535C134.247 57.331 132.837 58.3535 133.029 59.7797C131.339 59.4047 129.479 59.5835 128.559 61.2797C128.115 62.2985 129.12 62.8772 127.539 62.8022C125.323 63.0035 123.914 66.0235 126.164 67.441C123.708 68.0022 121.789 72.451 125.134 73.1522C123.952 74.7772 123.142 77.1997 124.49 78.836C107.122 81.7435 93.278 84.1647 80.188 86.7547C73.8692 89.6022 69.1405 93.3522 63.0842 96.5047C62.9423 96.5785 62.834 96.7038 62.7817 96.8549C62.7294 97.0061 62.737 97.1715 62.803 97.3172C63.7255 99.3472 80.568 100.817 83.9342 101.096C99.4125 98.8534 114.759 95.7794 129.907 91.8872C124.609 96.1247 117.04 100.085 116.383 107.643C99.813 105.76 84.3567 108.16 71.2692 116.5C49.1255 129.643 26.1705 142.821 5.66296 159.095C6.24171 162.906 7.53796 166.751 7.73171 170.336C7.744 170.475 7.80229 170.605 7.89734 170.707C7.99239 170.809 8.11875 170.876 8.25634 170.898C8.39393 170.92 8.53488 170.895 8.65679 170.828C8.77869 170.76 8.87458 170.654 8.92921 170.526C23.7417 166.195 40.4855 166.085 55.8217 169.482C68.3005 171.672 64.183 177.531 67.9667 178.357C68.193 178.413 72.408 178.936 72.4667 178.867C73.258 178.8 73.6142 177.898 73.5917 177.28C74.0417 171.53 77.4342 171.393 82.9192 171.655C108.493 173.315 117.7 177.517 138.9 191.03C138.98 191.082 139.07 191.114 139.165 191.124C139.259 191.134 139.354 191.122 139.443 191.089C139.532 191.055 139.612 191.001 139.676 190.931C139.74 190.861 139.786 190.777 139.812 190.686C152.415 179.436 170.955 163.088 179.207 155.686C176.033 168.701 173.133 181.867 169.859 198.097C169.842 198.181 169.843 198.268 169.861 198.352C169.879 198.435 169.914 198.515 169.964 198.584C170.014 198.654 170.078 198.712 170.151 198.756C170.225 198.8 170.307 198.829 170.392 198.84C183.378 200.5 200.17 200.908 210.439 192.643C220.227 185.293 223.625 170.91 217.547 160.228ZM161.532 73.2735C165.959 73.241 167.459 78.1322 165.053 81.1222C163.345 80.7204 161.597 80.5108 159.842 80.4972C160.129 79.2284 160.065 77.9051 159.655 76.6703C159.245 75.4355 158.506 74.3362 157.517 73.491C158.837 73.366 160.178 73.2847 161.532 73.2735ZM157.943 98.1697C157.593 96.5722 159.004 96.3335 159.353 97.9422C160.017 102.84 159.479 107.826 157.783 112.468C151.503 111.639 145.116 112.369 139.185 114.593C137.22 113.508 135.175 112.574 133.068 111.798C136.249 109.506 140.298 106.287 143.417 104.186C146.624 108.045 151.072 110.669 156 111.611C156.142 111.606 156.277 111.556 156.387 111.467C156.497 111.378 156.576 111.257 156.61 111.12C158.042 106.963 158.498 102.531 157.943 98.1697ZM151.554 80.0347C152.044 79.1586 152.288 78.1669 152.262 77.1637C152.236 76.1605 151.94 75.1829 151.405 74.3335C152.732 74.1247 154.19 73.8172 155.655 73.7085C156.85 74.3478 157.788 75.3791 158.312 76.629C158.836 77.8789 158.913 79.2709 158.53 80.571C156.369 80.7497 152.11 81.1747 150.655 81.321C150.105 80.9222 151.439 80.6372 151.554 80.0347ZM135.25 77.771C137.097 78.551 138.83 76.9185 139.544 75.2085C140.194 75.4718 140.913 75.509 141.586 75.3143C142.26 75.1196 142.848 74.7041 143.257 74.1347C143.484 74.3382 143.766 74.4723 144.067 74.5213C144.368 74.5702 144.678 74.532 144.958 74.411C145.32 75.016 146.157 76.1185 146.799 76.9485C146.757 77.4595 146.851 77.9727 147.07 78.436C147.213 78.7187 147.442 78.9484 147.724 79.0911C148.007 79.2339 148.328 79.2822 148.64 79.2291C148.952 79.1759 149.239 79.024 149.458 78.7958C149.677 78.5675 149.817 78.2749 149.858 77.961C149.848 77.7922 150.333 77.801 150.495 77.4522C150.769 77.1041 150.903 76.6663 150.87 76.2247C151.157 77.4222 151.053 79.6497 149.614 79.9922C149.127 80.0197 148.665 80.6172 148.955 81.071C150.037 82.9094 151.382 84.5799 152.947 86.0297C153.377 89.6322 147.822 94.2497 145.543 89.8247C146.379 89.0685 146.679 90.0472 147.338 90.6085C147.713 90.9835 148.349 90.3585 147.97 89.976C147.485 89.5743 147.059 89.1059 146.705 88.5847C146.58 88.3347 146.33 88.3347 146.073 88.4597C144.696 89.4888 142.973 89.9424 141.268 89.7247C140.302 89.4861 139.395 89.0538 138.602 88.4541C137.808 87.8544 137.145 87.0998 136.652 86.236C136.552 85.6322 136.383 84.6247 135.572 84.236C134.62 83.5522 134.362 81.976 133.878 80.8947C134.545 79.9587 135.012 78.8954 135.25 77.771ZM141.777 90.6247C138.724 92.4797 134.152 89.7985 133.937 86.356C133.957 86.0811 134.081 85.8244 134.285 85.6384C134.488 85.4525 134.755 85.3514 135.03 85.356C135.33 85.5585 135.387 86.341 135.468 86.6972C135.682 87.551 136.709 88.9147 137.489 88.5947C138.619 89.7774 140.146 90.5005 141.777 90.6247ZM69.433 98.1247C67.7943 97.9034 66.1738 97.5638 64.5842 97.1085C66.2705 96.5735 67.948 94.1085 69.648 95.4147C69.963 95.8822 69.2005 96.101 69.198 96.5335C69.0917 97.2535 70.0042 97.111 70.2655 97.5735C70.181 97.7262 70.0616 97.8568 69.9168 97.9544C69.7721 98.0519 69.6063 98.1138 69.433 98.1347V98.1247ZM83.808 99.8197C79.5505 99.4672 74.9417 98.9447 71.2255 98.4047C71.3426 98.2442 71.4248 98.0609 71.4667 97.8667C71.5086 97.6724 71.5092 97.4715 71.4686 97.277C71.4279 97.0825 71.3469 96.8987 71.2307 96.7374C71.1146 96.5762 70.9659 96.4411 70.7942 96.341C70.9007 96.1275 70.9594 95.8933 70.9661 95.6548C70.9729 95.4164 70.9276 95.1793 70.8333 94.9601C70.7391 94.7409 70.5982 94.5449 70.4205 94.3857C70.2427 94.2266 70.0324 94.1081 69.8042 94.0385C73.2526 91.7798 76.8434 89.7464 80.5542 87.951C81.9231 88.0096 83.238 88.5014 84.3092 89.3556C85.3804 90.2098 86.1527 91.3822 86.5145 92.7037C86.8763 94.0251 86.8091 95.4274 86.3224 96.7082C85.8357 97.9889 84.9548 99.082 83.8067 99.8297L83.808 99.8197ZM86.058 99.5172C86.8597 98.6127 87.4376 97.5323 87.7448 96.3633C88.0521 95.1943 88.0801 93.9694 87.8267 92.7875C87.5733 91.6057 87.0455 90.5 86.2859 89.5597C85.5264 88.6195 84.5564 87.871 83.4542 87.3747C96.3417 84.906 110.198 82.4585 127.524 79.5922C127.568 80.8022 128.583 82.3322 129.914 81.681C130.289 81.431 130.297 81.0897 130.647 81.6272C130.795 81.8114 130.98 81.9623 131.19 82.0702C131.4 82.1781 131.63 82.2406 131.866 82.2536C132.102 82.2665 132.338 82.2297 132.558 82.1455C132.779 82.0613 132.98 81.9315 133.147 81.7647C133.467 82.6094 133.845 83.4309 134.278 84.2235C132.228 84.8897 132.447 87.396 133.468 88.9222C132.985 89.2447 132.531 89.6086 132.112 90.0097C116.943 94.0071 101.571 97.1842 86.0605 99.5272L86.058 99.5172ZM67.903 176.792C67.8247 176.817 67.7423 176.826 67.6605 176.819C67.5788 176.811 67.4992 176.788 67.4264 176.75C67.3537 176.712 67.2891 176.66 67.2364 176.597C67.1836 176.534 67.1438 176.462 67.1192 176.383C66.2316 173.551 64.4842 171.066 62.1197 169.272C59.7551 167.479 56.8907 166.466 53.9242 166.375C53.7585 166.375 53.5995 166.309 53.4823 166.192C53.3651 166.074 53.2992 165.915 53.2992 165.75C53.2992 165.584 53.3651 165.425 53.4823 165.308C53.5995 165.191 53.7585 165.125 53.9242 165.125C57.1583 165.21 60.2843 166.307 62.8635 168.26C65.4428 170.212 67.3458 172.924 68.3055 176.013C68.354 176.17 68.3389 176.34 68.2636 176.485C68.1883 176.631 68.0588 176.741 67.903 176.792ZM68.2367 171.292C59.6805 157.917 24.2542 156.023 9.52421 157.63C28.1605 143.407 48.6492 131.315 68.4842 119.6C82.4567 110.156 98.4842 106.665 116.365 108.901C116.655 112.616 119.547 112.972 122.935 113.097C128.123 113.097 134.228 107.303 136.504 101.992C138.115 98.9465 139.417 95.7478 140.393 92.4435C141.028 92.3545 141.642 92.1498 142.203 91.8397C139.005 98.4885 137.812 106.866 131.55 111.346C130.973 111.765 131.463 112.442 131.937 112.691C134.11 113.537 135.968 114.316 137.8 115.245C135.367 116.288 132.843 118.245 130.477 119.043C117.335 110.891 99.138 110.96 83.8867 113.668C69.9455 120.285 58.1605 129.403 44.688 136.875C36.1092 141.848 27.2392 146.991 18.7617 152.558C18.6472 152.634 18.5606 152.745 18.5154 152.874C18.4701 153.004 18.4687 153.145 18.5114 153.275C18.554 153.405 18.6383 153.518 18.7513 153.596C18.8643 153.673 18.9998 153.712 19.1367 153.705C31.0711 152.915 43.0479 154.364 54.4492 157.978C59.4817 159.543 65.6505 162.016 68.748 167.282C68.3433 168.578 68.1702 169.934 68.2367 171.29V171.292ZM76.4705 135.285C64.0555 138.325 65.8342 133.951 68.3967 123.875C75.678 119.865 81.4792 114.088 90.4767 113.875C104.059 112.875 118.155 112.917 129.382 119.853C124.068 122.867 118.757 126.056 113.494 129.416C112.545 129.827 111.657 131.023 110.643 130.84C99.1293 131.137 87.6774 132.626 76.4705 135.282V135.285ZM109.22 132.148C105.234 134.746 101.128 137.556 96.7117 140.708C95.298 140.522 92.3442 141.61 91.4267 140.552C90.2092 138.832 90.5517 135.998 90.3905 133.945C96.63 133.012 102.915 132.411 109.218 132.146L109.22 132.148ZM54.833 156.788C44.0292 153.381 32.7156 151.875 21.3967 152.34C36.4355 142.77 51.998 134.34 66.8967 124.803C63.5717 136.027 65.0217 139.568 76.7867 136.495C80.9009 135.56 85.0305 134.768 89.1755 134.12C89.1333 135.672 89.2212 137.226 89.438 138.763C89.7842 141.951 91.998 142.69 94.7655 142.097C88.0141 147.061 81.5714 152.431 75.473 158.177C72.9143 160.279 70.8168 162.886 69.3117 165.835C65.8092 160.695 59.423 158.231 54.8305 156.786L54.833 156.788ZM100.164 171.406C100.117 171.565 100.008 171.698 99.8624 171.777C99.7166 171.856 99.5455 171.873 99.3867 171.826C99.5442 171.632 69.3542 164.155 72.028 176.826C72.0457 176.906 72.0475 176.989 72.0331 177.07C72.0188 177.151 71.9887 177.228 71.9446 177.297C71.9004 177.367 71.843 177.426 71.7757 177.473C71.7084 177.521 71.6325 177.554 71.5523 177.572C71.4722 177.589 71.3893 177.591 71.3084 177.577C71.2275 177.562 71.1503 177.532 71.081 177.488C71.0118 177.444 70.9519 177.387 70.9049 177.319C70.8578 177.252 70.8244 177.176 70.8067 177.096C69.493 171.79 74.6817 168 81.2892 168.206C87.5218 168.17 93.7301 168.984 99.743 170.625C99.8216 170.648 99.8948 170.687 99.9585 170.739C100.022 170.791 100.075 170.855 100.114 170.927C100.153 171 100.177 171.079 100.185 171.161C100.193 171.242 100.185 171.325 100.162 171.403L100.164 171.406ZM118.532 170.331C118.479 170.488 118.366 170.618 118.218 170.692C118.069 170.766 117.898 170.777 117.74 170.725C117.615 170.681 104.854 166.417 95.4655 165.108C85.488 163.718 75.2655 165.858 72.193 169.976C71.7342 170.635 70.6855 169.872 71.193 169.226C75.038 164.068 86.6517 162.615 95.6405 163.867C105.14 165.192 118.015 169.492 118.14 169.536C118.297 169.59 118.426 169.703 118.499 169.852C118.572 170 118.583 170.172 118.529 170.328L118.532 170.331ZM137.657 173.902C133.521 170.453 128.767 167.823 123.648 166.152C114.414 162.843 104.665 161.204 94.8567 161.311C87.9117 161.672 72.8455 162.311 69.4617 170.22C69.6805 165.743 72.8067 162.242 76.3255 159.095C92.8742 143.232 118.097 127.095 137.895 116.582C142.7 114.02 149.252 113.023 157.353 113.616C156.885 114.305 156.467 116.593 155.648 116.297C151.199 115.699 146.696 115.612 142.227 116.04C142.145 116.047 142.065 116.07 141.992 116.108C141.919 116.146 141.854 116.198 141.801 116.261C141.747 116.324 141.707 116.397 141.682 116.475C141.658 116.554 141.648 116.636 141.655 116.718C141.67 116.884 141.749 117.038 141.877 117.145C141.94 117.198 142.012 117.238 142.091 117.263C142.169 117.288 142.252 117.297 142.334 117.29C146.668 116.876 151.035 116.955 155.35 117.525C154.581 118.778 153.714 119.97 152.758 121.088C152.666 120.967 152.532 120.885 152.383 120.857C147.812 120.091 143.157 119.961 138.55 120.471C138.468 120.48 138.389 120.505 138.316 120.545C138.244 120.584 138.18 120.638 138.128 120.702C138.077 120.767 138.038 120.84 138.015 120.92C137.992 120.999 137.985 121.082 137.994 121.164C138.003 121.246 138.028 121.326 138.067 121.398C138.107 121.47 138.16 121.534 138.225 121.586C138.289 121.638 138.363 121.676 138.442 121.699C138.522 121.723 138.605 121.73 138.687 121.721C143.122 121.23 147.604 121.349 152.008 122.072C151.015 123.108 149.779 125.091 148.383 125.301C148.018 125.103 134.105 122.107 137.812 124.883C141.019 125.1 144.203 125.586 147.329 126.337C145.892 127.572 143.549 127.228 142.13 128.381C141.41 128.675 140.945 129.518 141.345 130.042C139.97 129.822 129.96 127.917 129.897 129.572C129.897 129.738 129.963 129.897 130.08 130.014C130.197 130.131 130.356 130.197 130.522 130.197C132.129 130.376 142.549 130.188 140.373 132.133C139.832 132.905 139.648 134.641 140.893 134.75C141.2 134.632 140.919 135.596 141.232 135.921C133.014 132.766 124.179 131.549 115.414 132.365C115.248 132.38 115.096 132.461 114.989 132.589C114.883 132.718 114.832 132.883 114.848 133.048C114.864 133.214 114.944 133.367 115.073 133.473C115.201 133.579 115.366 133.63 115.532 133.615C132.927 131.821 149.85 138.896 161.884 151.071C162.006 151.071 162.126 151.036 162.228 150.969C162.33 150.902 162.411 150.806 162.459 150.694C162.508 150.582 162.522 150.458 162.501 150.338C162.48 150.218 162.424 150.106 162.34 150.017C156.781 144.137 150.029 139.514 142.535 136.46C142.857 136.305 143.124 136.057 143.303 135.748C143.312 135.959 143.382 136.163 143.504 136.335C143.626 136.507 143.796 136.64 143.992 136.718C144.188 136.796 144.402 136.815 144.609 136.774C144.816 136.733 145.007 136.633 145.158 136.486C146.157 135.347 147.286 134.33 148.523 133.456C154.84 135.938 160.54 139.768 165.225 144.678C165.281 144.741 165.349 144.792 165.425 144.828C165.5 144.864 165.582 144.884 165.666 144.887C165.75 144.891 165.833 144.878 165.912 144.848C165.99 144.819 166.062 144.774 166.123 144.716C166.183 144.659 166.232 144.589 166.265 144.513C166.299 144.436 166.317 144.353 166.317 144.269C166.318 144.186 166.302 144.103 166.27 144.025C166.238 143.948 166.191 143.877 166.132 143.818C161.728 139.209 156.447 135.525 150.599 132.985C153.618 132.744 156.573 131.983 159.333 130.735C164.174 133.175 168.637 136.302 172.583 140.02C172.642 140.079 172.712 140.126 172.79 140.157C172.867 140.189 172.95 140.204 173.034 140.203C173.118 140.202 173.2 140.184 173.277 140.15C173.353 140.116 173.422 140.068 173.48 140.007C173.537 139.946 173.582 139.874 173.611 139.796C173.64 139.718 173.653 139.634 173.65 139.551C173.646 139.467 173.626 139.385 173.59 139.31C173.554 139.234 173.503 139.167 173.44 139.111C169.651 135.545 165.396 132.509 160.792 130.085C162.86 129.136 164.845 128.014 166.724 126.731C171.413 129.032 175.732 132.019 179.539 135.595C180.117 136.16 180.998 135.232 180.395 134.685C176.662 131.183 172.448 128.231 167.88 125.92C169.37 124.813 170.767 123.586 172.055 122.251C176.405 124.19 180.505 126.646 184.267 129.566C184.332 129.616 184.407 129.652 184.487 129.673C184.567 129.694 184.65 129.699 184.731 129.688C184.813 129.677 184.892 129.649 184.963 129.608C185.034 129.566 185.096 129.511 185.146 129.445C185.196 129.38 185.232 129.305 185.253 129.225C185.274 129.145 185.279 129.062 185.268 128.981C185.257 128.899 185.23 128.82 185.188 128.749C185.146 128.678 185.091 128.616 185.025 128.566C181.302 125.679 177.257 123.233 172.97 121.277C174.164 119.944 175.241 118.511 176.192 116.995C183.713 119.363 190.866 122.774 197.442 127.127C193.898 129.091 178.067 141.877 171.858 146.403C169.324 148.261 137.787 173.762 137.657 173.9V173.902ZM145.754 131.645C144.565 130.876 142.715 134.037 142.325 134.866C142.678 133.475 143.463 132.231 144.568 131.315C144.689 131.212 144.767 131.068 144.787 130.911C144.806 130.754 144.767 130.595 144.675 130.466C144.583 130.337 144.446 130.247 144.291 130.214C144.136 130.18 143.974 130.207 143.838 130.287C144.179 130.082 144.537 129.907 144.909 129.765C145.035 129.716 145.142 129.628 145.213 129.514C145.285 129.399 145.318 129.265 145.307 129.13C145.296 128.996 145.241 128.869 145.152 128.767C145.062 128.666 144.943 128.597 144.81 128.57C147.013 127.556 148.81 129.695 149.153 131.641C147.377 132.52 145.82 133.784 144.593 135.34C144.763 134.297 145.183 133.311 145.815 132.465C145.906 132.343 145.95 132.193 145.938 132.041C145.926 131.89 145.859 131.748 145.75 131.642L145.754 131.645ZM139.77 189.073L139.32 182.676C142.786 179.549 146.512 176.722 150.457 174.226C150.597 174.137 150.695 173.996 150.731 173.834C150.767 173.672 150.738 173.503 150.649 173.363C150.56 173.223 150.419 173.124 150.257 173.088C150.095 173.052 149.925 173.082 149.785 173.171C146.058 175.535 142.522 178.187 139.21 181.105L139.047 178.773L169.613 153.822C169.677 153.77 169.729 153.706 169.768 153.634C169.807 153.562 169.831 153.482 169.84 153.401C169.848 153.319 169.84 153.236 169.816 153.158C169.793 153.079 169.754 153.006 169.702 152.942C169.65 152.879 169.586 152.826 169.513 152.787C169.441 152.748 169.362 152.724 169.28 152.716C169.198 152.707 169.116 152.715 169.037 152.739C168.959 152.763 168.885 152.802 168.822 152.853L138.939 177.25L138.769 174.831C154.835 162.403 155.552 159.938 183.629 139.041C186.935 136.47 194.297 130.472 197.855 128.291C197.487 130.419 197.296 132.574 197.284 134.733L181.343 147.662C181.243 147.744 181.17 147.854 181.135 147.978C181.101 148.103 181.105 148.235 181.148 148.356C181.191 148.478 181.271 148.583 181.376 148.658C181.482 148.732 181.608 148.772 181.737 148.772C182.072 148.772 180.873 149.647 197.237 136.387C197.212 137.105 197.188 137.693 197.167 137.798C195.978 139.261 150.988 179.113 139.77 189.071V189.073ZM215.092 173.69L219.285 173.91C218.893 179.189 216.801 184.199 213.322 188.188C212.404 187.431 209.947 184.438 209.032 185.502C208.943 185.642 208.913 185.812 208.949 185.973C208.986 186.135 209.084 186.276 209.224 186.365C210.414 187.145 211.506 188.066 212.474 189.108C209.006 192.665 204.664 195.246 199.883 196.593L198.78 192.626C198.732 192.471 198.626 192.34 198.483 192.262C198.34 192.184 198.173 192.165 198.016 192.208C197.859 192.252 197.726 192.355 197.644 192.496C197.562 192.636 197.538 192.803 197.577 192.961L198.689 196.961C193.98 198.194 189.113 198.712 184.25 198.5L184.884 194.27C184.901 194.11 184.855 193.949 184.757 193.822C184.658 193.695 184.514 193.61 184.355 193.586C184.196 193.563 184.034 193.601 183.902 193.694C183.771 193.787 183.68 193.927 183.649 194.085L182.989 198.485C179.058 198.427 175.132 198.161 171.228 197.688C174.579 181.106 177.545 167.718 180.827 154.363C184.452 150.817 187.883 148.057 190.26 145.815C190.573 146.49 191.594 146.272 192.199 146.492C192.049 147.466 190.844 151.086 192.234 151.298C192.4 151.298 192.559 151.233 192.676 151.115C192.793 150.998 192.859 150.839 192.859 150.673C192.869 149.34 193.061 148.014 193.432 146.732C197.104 147.443 200.686 148.558 204.113 150.057L201.943 153.637C201.9 153.707 201.872 153.785 201.86 153.867C201.847 153.948 201.851 154.031 201.871 154.11C201.89 154.19 201.926 154.265 201.974 154.331C202.023 154.398 202.084 154.453 202.154 154.496C202.225 154.538 202.302 154.567 202.384 154.579C202.465 154.592 202.548 154.588 202.627 154.568C202.707 154.549 202.782 154.513 202.848 154.465C202.915 154.416 202.97 154.355 203.013 154.285L205.252 150.592C209.98 152.977 213.458 155.765 215.862 159.787L212.694 161.37C212.618 161.405 212.55 161.455 212.494 161.517C212.438 161.579 212.394 161.651 212.367 161.73C212.339 161.809 212.327 161.893 212.333 161.977C212.338 162.06 212.36 162.142 212.397 162.217C212.435 162.291 212.487 162.358 212.55 162.412C212.614 162.467 212.688 162.508 212.768 162.533C212.848 162.558 212.932 162.567 213.015 162.559C213.098 162.551 213.179 162.527 213.253 162.487L216.479 160.876C218.425 164.491 219.405 168.547 219.324 172.652L215.158 172.433C214.992 172.425 214.829 172.482 214.705 172.594C214.581 172.705 214.507 172.861 214.498 173.027C214.489 173.193 214.547 173.356 214.658 173.48C214.77 173.604 214.925 173.678 215.092 173.687V173.69Z" fill="black"/>
</svg>
