<svg width="185" height="154" viewBox="0 0 185 154" fill="none" xmlns="http://www.w3.org/2000/svg">
<g clip-path="url(#clip0_181_942)">
<path d="M133.021 32.4749C131.193 33.3955 129.812 34.2839 129.331 36.1099C129.143 36.8251 129.141 36.8396 128.923 36.6878C127.865 35.9558 126.799 35.1095 125.45 35.3134C124.777 35.4154 123.635 35.8945 123.664 36.5667C123.616 37.0251 124.076 37.1447 124.399 36.8749C126.921 34.773 129.547 39.9488 130.134 37.692C130.293 37.0842 130.117 37.0535 130.544 35.9665C131.214 34.2632 133.413 33.8194 133.906 33.0191C134.205 32.5339 133.633 32.166 133.02 32.4749H133.021Z" fill="black"/>
<path d="M48.153 108.704C47.5444 108.673 46.3815 109.076 45.3321 110.137C44.4291 111.051 44.8791 111.699 44.4 111.46C43.4587 110.99 42.3725 110.379 41.2388 110.399C39.1614 110.438 39.6551 112.034 40.4822 111.595C41.4365 111.088 43.1436 112.039 44.0727 112.546C46.2428 113.732 44.9987 111.513 46.6544 110.458C47.3443 110.019 47.9553 109.723 48.3707 109.397C48.6597 109.17 48.6912 108.731 48.153 108.704Z" fill="black"/>
<path d="M63.2931 103.864C63.1674 104.056 63.1605 104.048 62.9436 103.943C61.1675 103.083 60.9559 102.881 59.3707 102.726C59.015 102.807 58.4424 102.841 58.4907 103.329C58.5221 103.648 58.9268 103.758 59.2457 103.767C61.9647 103.84 63.1045 106.402 64.1309 104.612C64.9703 103.148 68.2289 101.595 68.13 101.333C67.7567 100.34 64.3793 102.214 63.2931 103.864Z" fill="black"/>
<path d="M148.669 36.3468C146.771 37.075 146.52 37.4951 145.773 38.71C144.893 38.1497 143.93 37.4912 142.754 37.6407C141.385 37.8139 141.981 39.2742 142.757 38.7553C143.427 38.3068 145.353 39.82 145.602 39.9672C146.045 40.2293 146.466 40.0806 146.656 39.5985C147.558 37.308 148.891 37.8002 149.492 36.9738C149.785 36.5698 149.39 36.0716 148.669 36.3483V36.3468Z" fill="black"/>
<path d="M150.884 24.8325C149.114 26.1655 149.342 26.8899 149.084 26.7067C148.172 26.0605 147.605 25.5891 146.775 25.5155C146.005 25.4994 145.65 25.97 145.844 26.3725C146.113 26.9298 146.315 26.3196 147.109 26.6898C148.458 27.3192 149.722 29.257 150.154 27.451C150.535 25.8558 152.838 25.1744 152.854 25.1667C153.584 24.7911 152.687 23.4742 150.885 24.8317L150.884 24.8325Z" fill="black"/>
<path d="M50.0977 96.5862C49.2468 96.1071 48.445 95.579 47.3596 95.7254C46.7463 95.8082 46.6298 96.5525 47.3803 96.5969C49.5933 96.7288 50.3537 99.1703 51.1977 96.876C51.5074 96.0343 52.6296 94.7281 52.8887 94.4445C54.4601 92.7205 54.5092 93.0202 54.8081 92.7297C55.1975 92.351 52.6334 91.9555 50.0985 96.5854L50.0977 96.5862Z" fill="black"/>
<path d="M116.958 125.599C116.958 122.526 117.111 120.051 119.265 117.798C122.074 114.859 124.104 114.264 126.732 114.323C130.27 114.402 133.14 115.518 135.379 118.258C137.442 120.782 137.03 121.167 137.418 120.396C139.452 116.353 143.084 113.823 146.462 113.143C151.798 112.07 158.94 117.149 158.609 122.369C158.472 124.539 156.278 128.884 156.977 128.907C160.552 129.024 163.202 129.574 167.35 133.705C168.208 134.559 169.45 136.338 169.625 137.509C169.735 138.245 170.112 138.18 172.909 138.887C176.235 139.728 177.594 139.942 178.907 141.243C179.996 142.322 179.516 143.829 178.35 144.53C175.762 146.087 173.225 146.174 170.501 146.133C161.358 145.993 157.871 146.49 134.769 145.735C123.333 145.361 134.002 145.604 115.291 145.02C90.2298 144.237 91.9063 145.051 88.5595 144.566C86.1694 144.22 82.7046 143.549 83.5539 141.288C84.0775 139.896 86.5236 139.529 88.2207 139.045C91.0623 138.236 91.7154 137.765 95.9015 137.704C97.7458 137.677 99.8194 137.945 100.057 136.11C100.318 134.097 100.039 133.486 100.745 131.67C101.297 130.252 102.925 128.276 105.334 127.119C109.604 125.067 113.106 127.747 116.136 129.577C116.704 129.92 116.797 130.125 116.864 129.894C116.887 129.816 117.006 125.596 116.957 125.596L116.958 125.599ZM117.865 129.565C117.856 129.953 117.774 130.324 117.689 130.697C117.416 131.896 116.132 130.797 115.488 130.406C111.312 127.881 110.585 127.348 107.907 127.491C105.309 127.631 102.313 130.138 101.579 132.567C100.726 135.383 102.364 138.343 97.3173 138.556C95.0744 138.65 94.836 138.425 92.8323 138.75C90.3387 139.156 90.0505 139.581 85.8268 140.664C84.5957 140.98 83.245 142.146 85.9287 142.954C90.4008 144.3 94.0817 143.32 100.566 143.652C100.715 143.659 100.601 143.918 123.096 144.162C123.114 144.162 149.401 145.701 168.686 145.128C169.808 145.094 175.935 145.74 178.331 143.463C178.687 143.124 178.812 142.342 178.353 141.881C176.837 140.355 175.06 140.477 169.851 139.05C168.632 138.716 168.854 137.724 168.333 136.727C167.301 134.755 166.123 133.881 165.154 133.004C159.514 127.902 155.136 131.282 155.676 128.824C156.828 123.576 159.734 121.586 154.767 116.714C153.6 115.57 152.681 115.23 150.567 114.393C148.747 113.673 146.379 113.726 143.766 115.195C137.895 118.496 138.544 122.278 137.117 122.141C135.997 122.035 134.517 115.817 127.775 115.367C127.183 115.328 125.499 115.303 124.716 115.449C122.706 115.823 120.718 117.599 119.561 119.029C117.704 121.322 117.993 123.425 117.864 129.566L117.865 129.565Z" fill="black"/>
<path d="M135.288 55.8387C138.509 55.8042 140.752 55.9743 143.728 59.338C145.326 61.1447 145.228 61.6606 145.425 61.3095C149.533 54.0296 151.802 52.9472 157.384 52.6337C163.308 52.301 166.936 58.1452 166.918 61.6001C166.876 69.7776 163.708 65.1308 170.942 67.8505C172.869 68.5749 174.451 69.878 174.328 71.9347C174.255 73.1673 173.663 73.9952 172.842 75.3941C172.428 76.0994 172.094 75.7122 176.303 77.1426C176.842 77.3258 178.742 77.992 179.436 78.3653C180.715 79.0521 180.677 79.8662 180.066 80.2479C177.939 81.5748 173.769 80.8941 170.223 81.0605C167.179 81.2038 132.858 80.901 128.541 80.54C127.243 80.4311 124.782 80.5461 124.525 80.543C115.422 80.4311 108.682 81.3395 106.802 79.5373C106.374 79.1272 106.354 78.6037 106.778 78.1805C107.027 77.9314 107.334 77.7735 107.638 77.6141C110.275 76.2251 112.865 75.6655 114.236 75.3213C115.253 75.066 115.505 75.2316 115.394 74.9081C114.886 73.4379 115.209 71.4932 116.069 70.1149C117.452 67.8996 121.617 67.0464 124.907 68.732C126.256 69.4235 125.95 69.3882 125.468 67.212C124.312 62.0017 128.484 55.9115 135.289 55.8379L135.288 55.8387ZM176.389 80.1636C177.61 80.1667 179.839 79.742 179.358 79.3925C179.187 79.2683 179.015 79.1357 178.822 79.059C173 76.7364 171.168 77.0905 171.611 75.7122C172.055 74.3348 175.768 70.883 170.764 68.8309C169.164 68.1748 166.893 67.7639 165.83 67.7915C165.265 67.806 164.879 67.4243 165.057 66.8095C166.566 61.6254 166.224 58.832 162.49 55.2599C161.572 54.3822 160.239 54.0035 158.968 53.759C157.697 53.5145 157.608 53.6203 155.465 53.828C147.083 54.639 146.311 65.8897 144.559 62.3168C143.888 60.95 142.532 59.2881 140.336 57.8179C139.068 56.9686 137.719 56.9847 136.423 56.8858C133.214 56.6412 130.965 57.1771 128.153 60.3215C126.669 61.9803 125.922 64.7421 126.554 67.3913C126.774 68.3143 126.785 69.2771 127.093 70.1824C127.159 70.3786 127.073 70.5495 126.909 70.6706C126.562 70.9259 126.257 70.5955 126.096 70.4851C122.287 67.8758 116.569 68.3219 116.195 72.7587C116.133 73.4801 116.081 74.2152 116.305 74.9319C116.839 76.6451 112.396 75.6586 107.452 78.6612C107.284 78.7631 107.283 78.872 107.452 78.9517C110.565 80.4196 117.834 79.1663 132.844 79.7512C144.829 80.218 176.346 80.1636 176.389 80.1636Z" fill="black"/>
<path d="M29.288 121.839C32.509 121.804 34.752 121.974 37.728 125.338C39.326 127.145 39.228 127.661 39.425 127.31C43.533 120.03 45.802 118.947 51.384 118.634C57.308 118.301 60.936 124.145 60.918 127.6C60.876 135.778 57.708 131.131 64.942 133.851C66.869 134.575 68.451 135.878 68.328 137.935C68.255 139.167 67.663 139.995 66.842 141.394C66.428 142.099 66.094 141.712 70.303 143.143C70.842 143.326 72.742 143.992 73.436 144.365C74.715 145.052 74.677 145.866 74.066 146.248C71.939 147.575 67.769 146.894 64.223 147.061C61.179 147.204 26.858 146.901 22.5406 146.54C21.2428 146.431 18.7822 146.546 18.5254 146.543C9.42182 146.431 2.68152 147.34 0.802022 145.537C0.374222 145.127 0.353518 144.604 0.778218 144.181C1.02732 143.931 1.33392 143.774 1.63752 143.614C4.27522 142.225 6.86462 141.666 8.23602 141.321C9.25322 141.066 9.50542 141.232 9.39352 140.908C8.88602 139.438 9.20872 137.493 10.0688 136.115C11.4516 133.9 15.6171 133.046 18.9071 134.732C20.2562 135.424 19.9496 135.388 19.4675 133.212C18.3123 128.002 22.4838 121.912 29.289 121.838L29.288 121.839ZM70.389 146.164C71.61 146.167 73.839 145.742 73.358 145.393C73.187 145.268 73.015 145.136 72.822 145.059C67 142.736 65.168 143.091 65.611 141.712C66.055 140.335 69.768 136.883 64.764 134.831C63.164 134.175 60.893 133.764 59.83 133.792C59.265 133.806 58.879 133.424 59.057 132.81C60.566 127.625 60.224 124.832 56.49 121.26C55.572 120.382 54.239 120.004 52.968 119.759C51.697 119.515 51.608 119.62 49.465 119.828C41.083 120.639 40.311 131.89 38.559 128.317C37.888 126.95 36.532 125.288 34.336 123.818C33.068 122.969 31.719 122.985 30.423 122.886C27.214 122.641 24.9652 123.177 22.1527 126.322C20.6694 127.98 19.922 130.742 20.5544 133.391C20.7744 134.314 20.7852 135.277 21.0925 136.182C21.1592 136.379 21.0734 136.55 20.9086 136.671C20.5621 136.926 20.257 136.596 20.096 136.485C16.287 133.876 10.5693 134.322 10.1945 138.759C10.1332 139.48 10.081 140.215 10.3049 140.932C10.8392 142.645 6.39622 141.659 1.45202 144.661C1.28412 144.763 1.28262 144.872 1.45202 144.952C4.56502 146.42 11.8342 145.166 26.844 145.751C38.829 146.218 70.346 146.164 70.389 146.164Z" fill="black"/>
<path d="M91.4364 88.8378C92.1531 81.5226 91.7024 81.715 92.0826 81.2857C103.072 68.8929 112.897 58.1512 114.321 41.5432C115.185 31.4784 110.601 22.532 105.458 19.1039C103.404 17.7318 102.471 16.9185 100.112 15.9864C99.5181 15.7518 99.3388 15.5617 98.9816 15.1846C96.3738 12.4227 91.5215 9.71064 87.0173 9.4914C86.3895 9.46151 86.3657 9.0905 84.2147 8.199C82.2332 7.37726 79.2866 6.79851 76.9609 7.63559C76.6213 7.75824 76.5094 7.71377 76.2097 7.59649C73.874 6.67893 70.5188 6.8629 68.2958 8.95635C68.1011 9.14032 68.0329 9.19628 67.911 9.17942C66.952 9.03377 65.8781 9.0514 64.8057 9.23078C57.9497 10.3768 55.4224 13.7718 54.2074 15.403C53.8433 15.8921 53.5803 16.2447 53.3772 16.2999C52.2749 16.5996 50.8192 17.6613 49.9078 18.4807C44.8869 22.9812 43.537 29.194 42.8977 29.8464C39.5203 33.3027 37.2336 38.3896 36.7822 43.4542C36.5353 46.2383 36.7032 46.1724 36.6971 46.6254C36.6135 53.4461 41.4995 61.6866 45.7086 66.6714C54.6573 77.2675 70.8093 84.1143 71.9338 86.3104C76.5975 95.4293 77.9536 96.6267 77.6446 97.105C77.1472 97.88 77.8754 99.1402 78.6166 99.7028C78.8635 99.8899 78.8566 99.988 78.819 100.531C78.7056 102.16 78.8014 104.807 78.9493 106.575C79.0221 107.444 79.0168 107.474 78.7592 107.653C78.0264 108.161 77.7113 109.177 78.2962 109.949C78.4135 110.104 78.3951 110.123 78.2134 110.301C77.4239 111.078 77.6155 111.512 75.9475 113.093C75.2883 113.717 74.8529 114.13 75.0092 115.204C75.0675 115.603 75.6309 116.223 76.4964 116.299C77.4354 116.383 78.1337 115.544 78.714 114.68C78.6458 118.893 78.4924 120.519 80.0961 121.143C83.298 122.388 85.7417 121.602 88.5871 120.859C94.7609 119.244 99.6385 117.974 100.642 116.066C100.865 115.642 100.892 115.189 100.722 114.72C100.335 113.653 99.627 112.212 99.6577 112.029C100.876 111.715 101.353 110.257 100.896 109.361C99.3771 106.381 97.2821 106.858 97.3404 106.088C97.4239 104.997 96.5922 103.849 96.212 103.7C95.1687 103.293 95.1473 103.433 95.0239 103.152C92.6046 97.6309 91.8473 97.1157 92.042 96.849C92.5142 96.2035 92.2451 95.1373 91.9032 94.5854C91.1934 93.4417 90.991 93.6655 91.0025 93.4831C91.0516 92.7648 91.2931 90.2658 91.4326 88.8401L91.4364 88.8378ZM78.8083 110.811C78.7922 112.612 78.4994 114.53 76.6313 115.353C75.4615 115.117 75.772 114.279 76.7125 113.56C77.4737 112.979 77.9428 112.164 78.2863 111.569C78.481 111.23 78.6542 110.93 78.8083 110.811ZM86.8202 106.917C79.0444 108.991 79.5894 110.028 79.1923 109.479C79.0789 109.322 78.97 109.175 78.9784 108.972C79.0068 108.352 79.6415 107.989 80.1689 107.794C87.7301 104.996 90.0421 104.764 94.137 104.318C94.6567 104.262 95.621 104.157 96.0395 104.951C96.1614 105.181 96.3546 105.484 96.3822 105.797C94.0595 105.066 89.195 106.283 86.8195 106.916L86.8202 106.917ZM79.7956 100.528C79.8055 100.525 79.8638 100.506 80.1451 100.594C82.4003 101.299 82.1719 100.054 82.4586 101.878C82.7092 103.467 82.835 104.06 82.9921 104.772C83.3516 106.393 83.1293 105.287 79.9957 106.98C79.8983 107.033 79.9098 100.782 79.7956 100.528ZM84.112 100.518C87.8865 99.7205 87.7501 99.2582 87.8727 99.6139C88.4967 101.445 88.5948 101.911 89.3936 103.778C89.5699 104.189 89.484 103.672 84.2347 105.312C84.0231 105.378 84.1695 105.756 83.3049 100.914C83.2977 100.765 83.5668 100.633 84.112 100.518ZM94.0243 103.307C93.802 103.329 92.8032 103.311 90.8784 103.689C90.7887 103.705 90.6676 103.701 90.5556 103.716C90.374 103.742 90.374 103.743 90.318 103.582C89.9186 102.44 88.8194 99.2843 88.7903 99.2115C88.6876 98.9631 90.0796 98.5385 91.2785 97.8102C91.3559 97.8455 91.3766 97.9543 93.0623 101.285C93.7821 102.708 94.035 103.208 94.0243 103.307ZM91.2731 96.34C91.2325 96.3185 91.1903 96.2902 91.1405 96.2572C90.5403 95.8632 89.2901 95.0422 82.1205 97.5067C79.745 98.3231 79.8393 99.2184 79.6668 99.2015C79.2245 99.1586 78.0624 97.6401 78.6964 97.1679C80.2509 96.0127 86.8486 94.071 90.0934 94.2166C90.689 94.2427 91.6043 95.3281 91.2731 96.34ZM49.0056 33.0843C49.1773 44.187 55.8217 58.3061 61.4597 67.0225C62.9767 69.3674 69.2157 78.0746 72.1937 81.5057C72.2297 81.5479 72.2972 81.6253 72.298 81.6468C72.2911 81.6782 72.0458 81.8614 72.0205 81.8806C71.8342 82.0224 71.641 82.168 71.5046 82.3857C70.6276 82.3796 55.8118 67.8312 50.5003 59.6077C46.8792 54.0011 44.8179 49.3413 43.8168 44.499L43.813 44.4844C40.6003 28.9104 50.7755 18.0645 52.6789 17.7081C52.3278 18.9997 48.84 22.3418 49.0056 33.0843ZM88.6094 86.3143C88.6623 88.8132 88.6937 89.9539 88.581 93.1764C88.5789 93.2278 88.4162 93.2769 88.0927 93.3251C88.0728 93.3282 86.7451 93.5451 86.7252 93.5428C86.6815 93.4371 86.8126 89.7155 86.3304 85.2794C86.322 85.2028 86.2162 84.2983 86.2783 84.2262C86.2936 84.2155 86.3956 84.2208 86.4147 84.2216C87.2457 84.253 87.852 83.9587 88.555 83.6889C88.5726 83.7716 88.5534 83.6812 88.6094 86.3143ZM84.04 78.4081C84.4301 78.6649 84.6287 78.4748 84.6616 78.6955C85.3891 83.6053 85.3531 83.5486 85.1216 83.7249C84.3021 84.3481 83.0849 84.9659 82.0561 84.9222C80.2808 84.8617 80.3766 85.1407 79.7994 83.268C78.5906 79.3494 78.3598 79.518 78.5814 79.2873C80.3268 77.4714 82.1635 77.1755 84.04 78.4081ZM80.6664 85.7417C82.014 85.7785 82.6127 86.2047 85.0986 84.8824C85.1737 84.8425 85.2327 84.7973 85.2803 84.7605C85.3684 84.6923 85.3676 84.5451 85.4903 86.0368C85.7088 88.6737 85.9035 90.321 86.0368 93.2807C86.0606 93.8203 86.0491 93.6778 84.2347 94.1178C83.4045 94.3178 83.4099 94.3815 83.3485 94.2458C83.2926 94.1239 80.6733 85.826 80.6656 85.7409L80.6664 85.7417ZM77.2108 86.6907C78.9846 86.6163 79.4936 85.7754 79.63 85.7662C79.6476 85.7785 82.1573 93.3773 82.605 94.5279C82.4785 94.6183 82.4923 94.6114 82.1558 94.7126C79.9727 95.3711 80.0516 95.5114 79.952 95.2944C77.4469 89.8258 76.1476 86.9375 75.9897 86.4914C76.1207 86.4975 76.4672 86.7175 77.2108 86.6907ZM79.1448 85.0242C78.1567 85.5861 76.8704 86.1418 75.6792 85.4366C75.368 85.2511 75.4607 85.2771 73.9483 82.0408C73.8625 81.8599 73.9322 82.0047 74.5555 81.1263C75.1442 80.2984 76.6251 79.0788 77.5458 79.4491C77.6646 79.4966 77.7343 79.7258 78.6159 82.516C79.3571 84.8624 79.4284 84.8617 79.144 85.0234L79.1448 85.0242ZM88.3763 82.8065C87.6481 83.186 87.3354 83.1944 86.8632 83.1952C86.1342 83.1967 86.1633 83.242 86.1005 82.5076C85.9878 81.2022 85.8506 80.5797 85.6198 79.4107C85.4021 78.3207 85.3929 78.3123 85.4719 78.2755C86.5864 77.7565 87.018 78.024 87.6305 78.5024C88.6262 79.2804 88.4315 81.8507 88.5251 82.4723C88.5603 82.7008 88.5542 82.713 88.3763 82.8065ZM84.2508 77.3755C82.2547 75.9643 79.8071 76.6849 78.3867 78.1475C77.5481 77.4008 69.2387 56.1682 65.455 39.022C63.9985 32.4273 63.1523 22.2698 65.5592 15.3471C66.1955 13.5135 67.0962 11.9865 68.571 10.2419C69.5437 9.08897 71.5636 8.14074 73.7237 8.19823C78.1828 8.29865 80.963 12.8474 82.6663 16.26C85.5064 21.9509 86.4776 30.5692 86.9613 36.5568C88.4645 55.1594 84.657 76.0164 84.2508 77.3755ZM71.5881 84.1626C71.5996 84.0468 71.7024 83.1806 72.9304 82.3872C73.0476 82.3114 73.1665 82.2316 73.1964 82.2416C73.2638 82.2615 74.58 85.4343 74.5938 85.491C74.5072 85.5155 74.0925 85.5109 74.0074 85.5125C73.421 85.5224 72.2604 85.2733 71.8319 84.8632C71.6418 84.6808 71.5598 84.4454 71.5881 84.1626ZM75.1242 86.7497C76.4672 90.0221 78.829 94.5708 79.3954 95.6831C79.2797 95.7796 79.2912 95.7658 78.4334 96.2288C78.2395 96.3339 78.2556 96.3584 77.601 95.1012C77.1993 94.3309 73.2968 87.1483 72.9089 86.3633C75.1242 86.7045 74.8437 86.0644 75.1235 86.7489L75.1242 86.7497ZM90.6676 81.8859C90.2368 82.3221 89.3752 82.4463 89.3583 82.2615C89.3414 82.0776 89.4112 82.0285 89.231 80.6211C89.0954 79.5656 89.113 79.6269 89.2035 79.6476C90.2383 79.8967 90.1394 80.1505 90.6009 80.6441C90.9044 80.9684 90.8998 81.6506 90.6676 81.8859ZM90.2406 93.2562C89.9907 93.2477 89.7998 93.2477 89.6542 93.2477C89.4587 93.2477 89.3046 93.2477 89.2809 93.2232C89.2333 93.1427 89.3514 91.3896 89.3698 91.1842C89.4365 90.4399 89.494 89.7967 89.4334 83.4926C89.4265 82.782 89.9846 83.498 91.0784 82.6026C91.1551 82.5536 90.5219 92.6674 90.2406 93.2562ZM90.5005 79.3686C90.4238 79.3433 90.1486 78.8741 89.4227 78.7492C89.3905 78.7438 89.3522 78.7369 89.3307 78.7308C89.3706 78.6112 89.4503 78.776 92.3049 71.4585C96.3316 61.1369 98.3055 55.1149 99.5595 44.7427C100.192 39.5187 100.097 31.2676 98.3959 25.497C96.2273 18.1373 93.4302 15.3632 89.8887 11.8508C89.3016 11.2683 88.8777 11.0138 88.5879 10.7455C96.9349 13.1218 102.62 19.4696 104.993 27.8487C106.517 33.2292 106.207 37.6023 106.193 37.7388C106.193 37.7388 106.189 37.7541 106.189 37.7618C106.189 53.2721 98.4174 66.0551 93.7736 73.693C90.4391 79.1769 90.6576 79.2881 90.4997 79.3693L90.5005 79.3686ZM99.0444 113.856C98.4166 113.65 97.6347 113.393 90.3264 115.168C83.0082 116.946 80.7369 118.046 79.9911 118.407C79.9075 118.448 79.8316 118.485 79.7849 118.503C79.7849 118.447 79.7933 118.377 79.7864 118.309C79.617 111.893 79.7458 114.718 79.6959 110.996C79.6867 110.401 79.9857 110.152 82.7361 109.253C82.6724 109.505 82.2493 110.158 81.7687 111.311C81.121 112.868 82.2677 114.152 83.6444 113.93C84.5689 113.784 85.5738 112.575 85.5355 111.178C85.4865 109.299 84.9077 108.745 84.9989 108.562C85.038 108.485 85.1599 108.484 87.2917 107.884C89.3836 107.295 89.1866 107.36 89.1245 107.581C89.0869 107.709 89.0823 107.741 89.0593 107.86C88.8462 108.957 88.5228 110.613 89.1751 111.587C89.6143 112.241 90.4667 112.293 91.1183 112.122C93.0002 111.631 92.9626 108.494 91.9209 106.812C92.2206 106.701 96.1124 106.201 96.5416 107.165C96.675 107.465 99.0927 113.122 99.3687 113.94C99.246 113.922 99.151 113.891 99.0444 113.856ZM90.2897 111.259C89.5062 111.069 89.691 109.634 89.7891 108.863C90.0014 107.197 89.9761 107.209 90.1356 107.161C90.6837 106.995 90.9504 106.958 91.2041 107.307C92.1754 108.651 92.0205 111.677 90.2897 111.259ZM84.6049 111.098C84.5735 111.791 84.5666 112.244 83.8169 112.838C83.1469 113.368 82.2869 112.546 82.5337 111.944C83.4421 109.726 83.5593 109.801 83.6989 109.039C83.7142 108.953 83.7671 108.873 83.8537 108.873C84.26 108.873 84.6425 110.389 84.6049 111.098ZM97.6447 107.461C99.0076 108.103 99.8232 108.947 100.134 110.036C100.12 110.51 99.765 111.04 99.3549 111.197C99.269 111.231 99.2713 111.252 99.1494 110.932C98.9915 110.517 97.6501 107.479 97.6439 107.462L97.6447 107.461Z" fill="black"/>
</g>
<defs>
<clipPath id="clip0_181_942">
<rect width="185" height="154" fill="white"/>
</clipPath>
</defs>
</svg>
