<svg width="154" height="154" viewBox="0 0 154 154" fill="none" xmlns="http://www.w3.org/2000/svg">
<path d="M4.60157 79.9618C4.12784 79.9733 3.98909 79.4221 4.26428 79.3278C4.60847 79.2098 30.8015 74.9862 39.6505 73.5842C85.6443 66.2966 148.611 59.2827 149.068 59.4084C149.292 59.4705 149.183 59.7664 148.866 59.817C144.814 60.4693 128.81 62.4991 128.548 62.5283C80.6495 67.8696 4.6192 79.9579 4.60157 79.9618Z" fill="black"/>
<path d="M18.647 105.312C18.7144 104.605 18.7834 104.386 18.7551 102.87C18.6523 97.3127 22.3448 97.0267 30.4741 94.2235C50.563 87.2954 42.9412 90.357 63.4924 84.2675C63.5085 84.2629 77.6575 80.3911 77.6752 80.3865C106.083 72.7847 105.125 71.9116 113.962 79.0925C116.303 80.9944 129.607 93.9368 133.103 98.09C136.392 101.998 138.108 103.926 137.962 106.167C137.841 108.02 137.703 110.446 136.877 112.275C136.245 113.675 135.749 114.24 123.899 119.726C121.425 120.871 113.933 124.342 110.64 125.532C95.5503 130.984 62.2322 142.603 46.5732 146.101C40.9996 147.345 39.3599 146.541 35.2083 140.769C28.9371 132.05 21.8734 116.938 19.2939 109.179C19.0141 108.336 18.6531 106.436 18.647 105.312ZM103.844 74.8091C103.844 74.8682 103.154 74.7578 102.619 74.8367C97.9749 75.5228 54.1796 87.3598 37.0664 92.8284C21.6664 97.7496 18.2829 98.5805 20.0444 103.336C21.9891 108.589 27.8279 122.044 30.9769 127.503C38.5343 140.605 41.2019 141.98 48.1254 140.556C65.9385 136.893 129.658 115.412 135.839 108.316C138.754 104.97 136.937 103.332 128.51 94.4657C121.802 87.4096 114.841 80.7268 113.074 79.2895C110.152 76.914 107.316 74.8091 103.844 74.8091ZM112.103 122.001C112.092 122.972 112.705 122.764 113.548 122.462C118.153 120.806 118.866 120.322 118.876 119.77C118.899 118.423 118.494 118.673 114.522 120.315C112.378 121.201 112.112 121.187 112.102 122.001H112.103ZM121.02 118.338C121.02 119.058 121.368 119.219 121.843 119.027C122.813 118.636 123.393 118.423 126.738 116.822C127.584 116.417 127.74 115.997 127.631 115.467C127.532 114.987 127.385 114.905 126.915 115.064C126.456 115.219 125.996 115.383 125.555 115.583C121.142 117.589 120.971 117.531 121.02 118.338Z" fill="black"/>
<path d="M124.823 95.903C126.136 96.0233 126.733 96.4626 129.63 99.7656C130.46 100.712 131.803 101.997 132.45 103.848C132.847 104.987 132.118 106.218 131.26 106.794C120.342 114.112 76.6364 128.828 66.209 131.836C45.5206 137.803 42.7089 141.724 33.3294 125.04C29.0865 117.493 23.9844 105.685 23.7782 105.171C22.682 102.436 23.2546 100.604 26.2403 99.3532C26.8612 99.0934 30.1528 97.2705 40.9818 94.212C72.7615 85.2372 99.5976 75.9037 105.763 77.6108C106.9 77.9259 109.875 79.554 112.097 81.8031C112.246 81.9541 112.248 82.1465 112.323 82.3144C112.341 82.3534 112.277 82.4324 112.244 82.4899C111.07 84.5327 110.781 84.2813 113.306 86.8723C113.322 86.8891 118.707 92.4704 121.743 95.5458C122.309 96.1184 122.637 95.7021 124.823 95.903ZM122.55 96.7477C120.674 96.7324 120.17 95.118 113.694 88.5855C109.818 84.6753 110.109 84.3626 111.371 82.3059C111.416 82.2339 111.462 82.1833 111.366 82.1028C105.311 76.993 104.107 77.5962 97.0097 79.288C93.0582 80.2301 89.2707 80.8985 71.7581 86.1195C24.2565 100.282 22.0841 99.3287 24.6873 105.583C24.6942 105.599 30.7062 118.754 33.8407 124.296C36.7221 129.391 41.6303 136.067 46.3055 136C54.733 135.879 121.027 113.544 131.211 105.828C132.11 105.146 131.944 104.074 131.301 103.147C130.685 102.259 128.675 99.9059 128.469 99.6767C125.452 96.3323 125.987 96.7745 122.55 96.7477Z" fill="black"/>
<path d="M120.46 90.4858C120.219 90.7464 119.995 90.9886 119.444 90.7103C119.03 90.5003 114.785 86.3786 114.401 85.8083C114.095 85.3545 114.673 84.8485 114.965 85.0547C116.054 85.8259 119.967 89.49 120.46 90.4858Z" fill="black"/>
<path d="M123.148 92.9334C123.006 93.6807 121.263 93.4592 121.01 92.6513C120.618 91.3995 123.388 91.6716 123.148 92.9334Z" fill="black"/>
<path d="M128.668 105.942C127.96 105.979 127.743 105.504 126.697 103.941C126.544 103.711 126.423 103.465 126.576 103.186C126.626 103.094 126.681 102.983 126.764 102.932C127.231 102.648 128.048 102.199 128.48 102.536C128.966 102.916 130.383 104.59 130.033 105.095C129.7 105.575 129.25 105.87 128.669 105.942H128.668ZM129.464 104.8C129.415 104.628 129.513 104.768 128.979 104.018C128.853 103.841 128.762 103.993 127.907 104.513C127.802 104.576 127.82 104.556 128.279 105.275C128.431 105.512 128.528 105.496 129.322 105.001C129.391 104.958 129.425 104.857 129.464 104.8Z" fill="black"/>
<path d="M126.899 100.248C127.436 100.228 127.88 100.912 127.678 101.102C127.513 101.257 126.124 101.874 125.935 101.953C125.658 102.071 125.478 102.186 125.145 101.644C124.984 101.38 124.994 101.169 125.429 100.952C126.888 100.226 126.676 100.33 126.899 100.248Z" fill="black"/>
<path d="M108.478 81.626C108.656 82.0553 107.914 82.4217 107.421 82.5137C105.957 82.7866 106.055 81.2956 107.527 81.2749C107.999 81.268 108.312 81.2297 108.478 81.626Z" fill="black"/>
<path d="M109.045 82.349C109.327 82.349 109.505 82.3099 109.603 82.6126C109.717 82.9614 109.717 82.9377 109.497 83.1761C109.219 83.4781 108.853 83.6076 108.455 83.646C107.517 83.7372 107.515 82.2148 109.045 82.349Z" fill="black"/>
<path d="M124.131 100.327C123.813 99.9288 123.969 99.8951 125.311 99.298C125.444 99.2389 125.726 99.4735 125.809 99.5716C126.185 100.015 125.778 100.156 124.892 100.61C124.608 100.756 124.34 100.587 124.131 100.327Z" fill="black"/>
<path d="M124.726 98.7753C124.527 99.0359 124.727 99.0022 123.696 99.4828C123.573 99.5403 123.404 99.3732 123.325 99.2881C123.028 98.9677 123.033 98.8826 123.398 98.6427C123.599 98.5101 123.814 98.389 124.037 98.3C124.292 98.1989 124.702 98.4626 124.727 98.7753H124.726Z" fill="black"/>
<path d="M104.953 79.0735C105.576 79.5848 104.497 79.7779 103.723 80.0217C103.278 80.1628 102.835 79.6829 104.953 79.0735Z" fill="black"/>
<path d="M104.493 80.6263C104.439 80.5773 104.203 80.4722 104.406 80.263C104.549 80.1158 104.699 80.0399 105.631 79.7777C106.004 79.6727 106.064 80.1227 105.808 80.2139C104.509 80.6715 104.639 80.6202 104.494 80.6271L104.493 80.6263Z" fill="black"/>
<path d="M106.91 80.969C106.731 81.0134 106.622 80.8478 106.481 80.7543C106.451 80.7344 106.449 80.6202 106.476 80.5757C106.636 80.309 107.322 80.1319 107.266 80.6999C107.246 80.8931 107.158 80.9651 106.91 80.969Z" fill="black"/>
<path d="M105.75 81.4542C105.259 81.4458 105.282 80.8272 105.693 80.8088C105.873 80.8011 106.125 81.0104 106.12 81.1645C106.115 81.3232 105.945 81.4581 105.75 81.4542Z" fill="black"/>
<path d="M76.8351 43.4134C76.8351 44.6467 76.7446 44.5463 77.3119 44.7058C78.3666 45.0032 92.964 103.738 94.2817 109.79C94.3377 110.045 94.4098 110.007 95.1027 110.113C95.3825 110.155 95.637 110.286 95.9068 110.35C96.4196 110.472 96.7715 110.788 97.0222 111.22C97.4951 112.037 97.2843 112.326 97.1762 113.263C96.8742 115.886 92.9771 116.065 91.3849 115.218C89.9714 114.466 90.2137 113.232 90.045 112.824C90.173 111.443 90.4559 111.14 90.9327 110.62C91.2339 110.292 91.1833 110.574 80.7897 104.6C76.438 102.098 75.6707 101.676 74.8934 101.203C74.5852 101.016 74.6098 101.096 72.9647 102.119C60.2163 110.041 62.6753 108.487 59.521 110.51C59.1554 110.745 60.2492 111.029 60.4945 112.28C60.5834 112.733 60.5121 113.146 60.2868 113.954C59.6206 116.338 55.7465 116.528 53.7466 115.403C51.4967 114.139 52.4787 110.01 55.2912 110.063C55.8891 110.074 55.8017 110.171 63.8712 73.1087C63.8765 73.0842 70.4505 45.3964 70.9618 44.9005C71.8318 44.055 70.6912 41.9485 72.2695 41.1014C72.5347 40.9589 72.8099 40.8577 73.1196 40.8492C74.0931 40.8217 76.6886 40.3901 76.8351 42.5119C76.842 42.6115 76.8512 43.4134 76.8351 43.4134ZM74.6105 85.8053C73.5427 86.3165 69.2071 88.7128 64.3204 91.2662C61.9349 92.5126 61.9019 92.0818 63.1291 92.705C66.5472 94.4397 67.3467 94.8084 73.4814 98.3882C74.6857 99.0911 74.6903 99.1708 74.9049 99.0382C78.4839 96.8374 86.7044 92.2266 87.0976 91.9691C87.3422 91.8089 87.3774 92.0381 80.007 88.4322C74.6167 85.7945 75.1165 86.0122 74.6105 85.806V85.8053ZM88.2168 92.7188C86.9719 93.6478 75.9781 99.8914 76.4403 100.17C88.2574 107.287 92.3324 109.492 92.3815 109.47C92.6597 109.346 88.4721 92.8859 88.2168 92.7188ZM57.5096 109.493C57.6046 109.819 56.2578 110.278 72.7984 100.304C73.1572 100.088 73.2882 100.292 65.6979 95.9866C60.8502 93.237 61.1399 93.0867 61.0388 93.5306C58.7713 103.481 61.0572 93.542 57.5096 109.492V109.493ZM83.5983 79.3678C82.9445 78.914 78.1957 76.5475 75.2629 74.8212C74.55 74.4019 74.7148 74.3919 69.9123 77.1869C69.8955 77.1969 65.7776 79.528 65.6465 79.646C65.9907 79.9396 66.5962 80.0692 70.4842 81.8399C75.5825 84.1618 74.0785 84.1495 75.827 83.2833C78.9707 81.7249 83.2971 79.623 83.5983 79.3678ZM87.7645 90.6821C87.7599 90.6637 85.0532 80.2194 85.0479 80.2033C84.9674 79.9304 85.3514 80.1236 78.1305 83.8713C76.4855 84.7252 76.4004 84.7566 76.6105 84.8854C76.6266 84.8954 87.6871 90.6821 87.7645 90.6821ZM72.6612 84.8693C72.2595 84.5397 68.4061 82.8586 64.1763 80.6425C63.9547 80.5268 64.2023 79.7986 62.0314 89.139C61.9954 89.2931 61.6827 90.6744 61.6758 90.9067C61.8245 90.8821 72.652 84.8862 72.6612 84.8693ZM81.4167 69.4117C81.3677 69.3542 75.3365 66.2481 74.228 65.6809C74.0609 65.5958 73.9153 65.5299 73.7298 65.6517C73.5443 65.7736 68.1317 69.0675 68.1133 69.0859C68.5165 69.3166 70.8951 70.4404 74.727 72.6135C75.0567 72.8006 74.8282 72.8083 79.7909 70.2756C80.2661 70.0333 81.2879 69.483 81.416 69.4124L81.4167 69.4117ZM64.5258 78.6472C67.812 76.4517 69.0331 75.843 72.8536 73.8155C73.2683 73.5955 73.2177 73.7312 70.6521 72.3276C66.1126 69.8448 66.4682 69.8716 66.3694 70.3154C64.5174 78.6434 64.4346 78.2731 64.5266 78.6465L64.5258 78.6472ZM74.2326 63.6595C74.4848 63.543 79.4835 60.8286 79.6851 60.6531C79.4919 60.5151 76.7001 59.0609 76.6841 59.051C74.8313 58.0844 74.8068 58.0192 74.5691 58.1748C74.3108 58.3442 69.3068 60.9727 69.2431 61.0256C69.3367 61.0908 74.1353 63.6173 74.2334 63.6602L74.2326 63.6595ZM84.4783 78.0608C84.4438 77.7917 82.647 70.8635 82.575 70.6029C82.447 70.1407 82.9851 70.0464 76.9094 73.4322C76.2954 73.7749 75.9144 73.2858 81.2052 76.2976C84.4377 78.1382 84.256 78.149 84.4783 78.0608ZM81.8951 68.0158C80.1833 61.2433 80.398 61.7653 80.0898 61.9263C79.8982 62.026 79.9932 61.9823 77.8699 63.2126C75.7466 64.4429 75.5695 64.446 75.8255 64.5954C81.8445 68.1055 81.7433 68.0963 81.8958 68.0165L81.8951 68.0158ZM66.9228 67.9046C67.0133 68.1469 66.548 68.317 71.099 65.5222C72.2802 64.797 72.4995 64.7871 72.2112 64.6276C71.6539 64.3202 72.1982 64.6453 68.4038 62.5058C68.1516 62.3632 68.2681 61.7975 66.9228 67.9046ZM77.8124 55.1469C77.5847 54.9423 77.2766 54.7913 75.9068 53.8952C74.5224 52.9891 74.4978 52.7783 74.1092 52.9945C71.2193 54.6012 71.2615 54.3137 71.4715 54.5444C71.4861 54.5605 72.9678 55.3616 74.714 56.3382C74.9861 56.4907 74.9402 56.5122 77.8124 55.1469ZM68.8146 59.5477C68.9296 59.875 68.5648 59.5929 72.8958 57.4573C73.4477 57.1852 73.4484 57.4221 70.0289 55.3501C69.7337 55.1715 69.8096 54.8894 68.8146 59.5477ZM58.8096 111.581C58.3689 111.199 58.2048 111.436 57.1271 112.144C56.6112 112.483 55.561 112.517 55.4721 111.801C55.3839 111.085 55.433 110.976 55.2735 110.997C54.0593 111.16 53.5503 112.145 53.9121 112.575C55.4391 114.385 60.4776 113.024 58.8096 111.581ZM76.6971 50.2065C74.0103 48.2779 73.972 47.9973 73.6661 48.1943C71.9721 49.2844 71.8624 49.2951 72.0265 49.4101C74.6412 51.2444 74.494 51.2421 74.7523 51.1157C75.5043 50.7492 76.4526 50.3606 76.6971 50.2065ZM93.5022 113.157C94.4833 113.129 94.8934 112.829 95.0736 112.789C95.7344 112.644 96.284 111.88 95.696 111.333C95.4063 111.063 95.0276 111.078 94.6865 110.977C94.5983 110.951 94.5278 111.01 94.5424 111.117C94.593 111.481 93.9644 112.07 93.3251 111.723C92.0687 111.04 92.0373 110.999 91.8387 111.138C91.4716 111.397 91.0898 111.99 91.401 112.382C91.9744 113.104 92.5846 113.045 93.5022 113.157ZM78.7645 55.8483C78.5974 55.9388 78.7307 55.8598 76.6672 57.0541C76.4832 57.1607 76.2724 57.2542 76.4571 57.3607C79.61 59.1652 79.2965 59.0862 79.6176 59.156C79.6146 59.0035 78.9109 56.089 78.7645 55.8483ZM70.7349 53.088C72.8352 51.9297 72.7501 52.0064 72.8436 51.9443C73.0452 51.8101 72.9088 51.7933 71.112 50.4058C70.8698 50.2188 70.9127 50.3767 70.547 51.9819C70.1116 53.8936 70.14 53.4153 70.7349 53.088ZM74.0019 41.5867C74.0019 41.6327 72.2312 41.4242 72.1852 42.17C72.1392 42.9159 75.2782 42.8875 75.8569 42.3517C76.4847 41.7706 74.9371 41.5867 74.0019 41.5867ZM77.5372 50.9302C77.3456 51.0152 77.0704 51.1777 76.9508 51.2544C75.6423 52.0968 75.6845 52.0409 75.9121 52.221C78.3168 54.1267 78.1206 54.0071 78.3536 54.1083C78.3452 53.7786 77.725 51.2345 77.5372 50.9302ZM77.085 48.9103C76.4349 46.2772 76.5131 46.2688 76.241 46.4512C74.9685 47.3036 74.9877 47.2377 75.1678 47.3933C77.0198 48.9885 76.9408 48.9724 77.085 48.9103ZM71.4554 47.8762C71.5206 48.0249 71.414 48.1123 72.5041 47.3028C72.6781 47.1741 72.6167 47.1511 71.9261 46.6375C71.6754 46.4512 71.6961 46.7295 71.4554 47.8762Z" fill="black"/>
<path d="M128.601 37.7911C126.45 34.6076 125.328 36.2672 128.001 34.2504C128.251 34.0626 128.167 33.6456 127.762 33.7345C127.618 33.7659 127.532 33.8181 126.186 34.4911C126.026 34.5716 125.773 34.7563 125.764 34.5256C125.625 31.2378 125.877 30.0336 125.218 30.1233C124.92 30.1639 124.928 30.4705 124.928 30.6737C124.925 34.0174 124.983 33.9254 124.91 34.2665C124.609 34.104 124.217 33.7483 123.347 33.339C123.033 33.191 122.302 32.9948 122.233 33.316C122.17 33.6126 122.276 33.6256 122.553 33.8058C124.937 35.3573 124.833 35.1833 124.462 35.4079C123.986 35.6946 123.46 35.9483 123.037 36.1974C122.416 36.5623 122.786 37.3097 123.459 37.0429C123.831 36.8958 124.527 36.5232 124.881 36.34C125.204 36.1729 124.989 38.4833 125.405 38.9486C125.69 38.6795 125.71 36.514 125.797 36.1323C126.21 36.2848 127.747 37.7857 128.484 37.9835C128.58 38.0095 128.659 37.8754 128.602 37.7903L128.601 37.7911Z" fill="black"/>
<path d="M101.62 54.6414C99.0489 55.8733 99.1738 55.9031 99.2129 55.5521C99.4137 53.7729 99.7518 52.4736 99.5517 52.0988C99.4076 51.8266 99.0519 51.799 98.8963 52.0581C98.6725 52.4314 98.3858 54.8568 98.2524 55.4754C98.1581 55.9146 97.446 54.7932 96.4878 54.5548C96.1467 54.4697 95.8355 54.9925 96.3713 55.4064C98.1428 56.777 98.0562 56.2481 96.3169 57.1411C95.8861 57.3627 95.5687 57.69 95.8087 58.1123C95.9566 58.373 96.3414 58.1645 96.5131 58.0939C97.9711 57.4976 97.9887 57.4355 97.9895 57.6156C97.9941 59.1541 97.8883 59.5956 98.1581 59.6094C98.4134 59.6224 98.4303 59.4507 98.799 57.9828C98.8419 57.8126 98.868 57.6386 98.9025 57.4669C99.8691 58.0909 100.023 58.396 100.271 58.2204C100.481 58.0717 100.298 57.8364 99.8859 57.2998C99.5487 56.8606 99.3716 56.8184 99.5977 56.731C99.7963 56.6544 101.062 55.9867 101.998 55.2761C102.183 55.1358 102.207 54.9128 102.068 54.7058C101.953 54.5341 101.867 54.5218 101.619 54.6406L101.62 54.6414Z" fill="black"/>
<path d="M25.3919 24.2883C24.1325 24.8555 23.9999 25.0778 24.0206 24.808C24.1217 23.4673 24.1386 23.4681 24.1026 23.4665C24.1026 22.8387 24.2076 22.2991 23.75 22.2623C23.3008 22.2263 23.2348 22.6732 23.1996 23.1408C23.067 24.8785 23.1735 24.9138 22.8669 24.7574C22.6837 24.6639 22.7458 24.6348 21.7002 24.181C21.3001 24.0077 21.0617 24.4056 21.3139 24.7298C21.54 25.0211 21.7316 25.1085 22.5035 25.6443C22.6906 25.7739 22.5511 25.7463 22.0827 26.0506C21.3392 26.5343 21.1008 26.6485 21.008 27.0502C20.9337 27.3698 21.1897 27.6764 21.7094 27.4043C22.9941 26.7313 23.0026 26.5734 23.0171 27.018C23.0271 27.3307 23.0003 27.6864 23.1237 28.0252C23.1727 28.1594 23.3759 28.2253 23.4924 28.0436C23.612 27.8566 23.8205 26.7443 23.8481 26.5918C23.891 26.3557 23.9347 26.5703 25.0623 26.926C25.198 26.9689 25.3927 27.031 25.4931 26.834C25.733 26.3633 24.3571 25.9502 24.7626 25.6658C25.2992 25.2886 25.1006 25.5102 26.6437 24.1702C26.7633 24.0668 26.8897 23.6168 25.3934 24.2898L25.3919 24.2883Z" fill="black"/>
<path d="M38.0837 61.5214C37.8982 61.5804 37.8208 61.6502 36.3306 62.5486C36.0424 62.7226 36.1727 62.698 36.1259 60.4237C36.1106 59.6901 36.083 59.2125 35.6882 59.2064C35.2344 59.1995 35.3095 59.5422 35.1953 60.925C35.2413 60.9281 35.2283 60.925 35.2283 61.7046C35.2283 61.9323 35.2597 62.15 35.0727 62.0242C33.9735 61.283 33.6339 61.8939 33.975 62.2519C34.2272 62.5164 34.602 62.7655 35.1432 63.135C35.3525 63.2775 35.0827 63.2959 34.5453 63.7382C33.6101 64.5071 33.4859 64.5998 33.5082 64.9195C33.535 65.2997 33.896 65.2415 34.1927 65.0521C35.3563 64.3093 35.3241 64.146 35.3939 64.5393C35.5387 65.3649 35.5855 65.5711 35.8377 65.6585C36.1849 65.7788 36.2233 65.1441 36.2064 65.0851C36.0937 64.6911 36.1773 64.3017 36.1474 63.9138C36.1259 63.6386 36.7668 64.4036 37.8629 64.5822C38.0661 64.6152 38.1312 64.4136 37.8353 64.1399C36.3559 62.7739 36.5207 63.6033 38.2907 61.8349C38.4647 61.6617 38.2447 61.4708 38.0845 61.5222L38.0837 61.5214Z" fill="black"/>
<path d="M102.149 19.6812C94.6765 6.46512 76.586 1.04561 62.2147 5.20798C50.0419 8.73411 42.6776 21.2235 43.9279 23.1659C44.1494 23.5101 44.1709 23.5063 48.4858 26.262C51.263 28.0358 49.2623 23.4802 56.9186 17.1547C70.186 6.193 90.4046 12.5837 96.5216 25.3039C97.2866 26.8944 98.3882 25.5944 100.11 24.3142C103.607 21.7149 103.586 22.2223 102.15 19.6812H102.149Z" fill="black"/>
<path d="M54.0309 28.6414C53.7588 29.1428 53.9359 29.7798 54.4288 30.091C55.4828 30.7571 56.5276 31.434 57.5762 32.1062C59.1231 33.0974 58.9967 30.2849 63.2725 26.8423C66.377 24.3426 69.9192 23.1115 73.7037 23.1836C79.4559 23.2932 83.6198 26.5511 87.1313 31.1097C88.7204 33.1725 87.8764 33.4155 92.5294 29.9446C92.8943 29.6724 93.4569 29.0646 93.2783 28.6468C86.8791 13.6677 63.7033 10.8008 54.0309 28.6399V28.6414Z" fill="black"/>
<path d="M63.2027 34.1416C62.811 34.728 62.8034 35.4793 63.4074 35.8572C68.091 38.7823 66.4889 38.5278 69.227 36.3585C72.0058 34.157 75.41 34.4667 77.9006 36.2604C80.5068 38.1377 80.0615 39.1733 81.5133 38.1116C84.7259 35.7621 85.2817 35.5935 84.6623 34.7035C78.9132 26.4447 68.7932 25.7755 63.2035 34.1416H63.2027Z" fill="black"/>
</svg>
